<svg width="272" height="237" viewBox="0 0 272 237" fill="none" xmlns="http://www.w3.org/2000/svg">
<mask id="mask0_17223_29" style="mask-type:alpha" maskUnits="userSpaceOnUse" x="0" y="0" width="272" height="237">
<rect width="272" height="237" fill="#D9D9D9"/>
</mask>
<g mask="url(#mask0_17223_29)">
<path d="M238.187 156.694L237.73 160.796L245.705 151.473C246.659 151.573 247.618 151.623 248.577 151.625" stroke="#263238" stroke-linecap="round" stroke-linejoin="round"/>
<path d="M228.196 128.402C227.148 129.983 226.491 131.791 226.28 133.676C225.524 140.491 230.868 146.937 238.943 149.92L238.533 153.582" stroke="#263238" stroke-linecap="round" stroke-linejoin="round"/>
<path d="M231.296 125.009C230.776 125.43 230.283 125.882 229.819 126.363" stroke="#263238" stroke-linecap="round" stroke-linejoin="round"/>
<path d="M261.205 125.009C257.564 122.514 253.355 120.975 248.963 120.532C244.322 119.963 239.614 120.655 235.333 122.536" stroke="#263238" stroke-linecap="round" stroke-linejoin="round"/>
<path d="M254.126 151.074C261.744 149.498 267.516 144.628 268.19 138.311C268.682 133.893 266.614 129.633 262.916 126.363" stroke="#263238" stroke-linecap="round" stroke-linejoin="round"/>
<path d="M235.339 129.539C235.984 129.659 236.646 129.65 237.288 129.514C237.929 129.377 238.538 129.115 239.078 128.742L241.926 130.951C241.726 131.015 241.744 130.594 241.955 130.582C242.166 130.57 242.324 130.764 242.47 130.916C243.139 131.625 244.264 131.648 245.219 131.443C246.174 131.238 247.106 130.857 248.079 130.892C248.657 130.953 249.226 131.085 249.772 131.285C253.687 132.498 257.759 133.108 261.814 133.705" stroke="#263238" stroke-linecap="round" stroke-linejoin="round"/>
<path d="M231.976 133.705C232.562 133.67 235.826 133.705 236.294 133.313L237.091 134.701L237.97 133.852C238.123 134.438 238.275 135.024 238.422 135.575C239.084 135.733 239.008 134.455 239.594 134.074C239.774 133.986 239.981 133.969 240.173 134.027C240.365 134.084 240.529 134.212 240.631 134.385C240.823 134.745 240.916 135.149 240.9 135.557L244.909 135.885L245.688 135.95C245.967 135.525 246.379 135.205 246.86 135.041C246.713 135.967 247.88 136.495 248.806 136.682C253.365 137.612 257.947 138.415 262.553 139.091" stroke="#263238" stroke-linecap="round" stroke-linejoin="round"/>
<path d="M233.757 140.069C234.126 140.327 234.577 139.847 235.028 139.788C235.48 139.729 235.849 140.069 236.247 140.274C236.646 140.479 237.302 140.392 237.326 139.946C237.419 140.532 238.146 140.743 238.738 140.825L254.126 142.988" stroke="#263238" stroke-linecap="round" stroke-linejoin="round"/>
<path d="M27.8481 120.051L34.0129 128.349L32.7764 117.491C34.2503 116.775 35.66 115.934 36.9897 114.977C43.3068 110.406 45.8501 103.052 43.5354 97.1271C41.9121 92.9899 38.109 90.1771 33.3038 89.011" stroke="#263238" stroke-linecap="round" stroke-linejoin="round"/>
<path d="M3.49982 106.96C3.30771 108.839 3.56479 110.737 4.2499 112.498C6.74626 118.885 14.4697 122.108 23.0019 120.995" stroke="#263238" stroke-linecap="round" stroke-linejoin="round"/>
<path d="M4.66609 102.512C4.40435 103.128 4.17932 103.758 3.99219 104.399" stroke="#263238" stroke-linecap="round" stroke-linejoin="round"/>
<path d="M31.153 88.6125C26.7686 88.0884 22.3228 88.6769 18.2258 90.3236C13.853 91.9772 10.0067 94.7789 7.0918 98.4339" stroke="#263238" stroke-linecap="round" stroke-linejoin="round"/>
<path d="M10.3501 104.64C11.6107 104.246 12.6642 103.37 13.2801 102.202L16.7961 102.835C16.6437 102.981 16.4679 102.6 16.6496 102.489C16.8313 102.378 17.0598 102.489 17.2356 102.548C18.1615 102.864 19.1635 102.366 19.9136 101.739C20.6637 101.112 21.3083 100.332 22.1932 99.9223C22.7337 99.7063 23.2984 99.5568 23.875 99.4769C27.9067 98.7386 31.7918 97.379 35.6653 96.0254" stroke="#263238" stroke-linecap="round" stroke-linejoin="round"/>
<path d="M9.30713 109.896C9.82867 109.585 12.7176 108.103 12.952 107.552L14.3057 108.413C14.4346 108.027 14.5635 107.634 14.6866 107.241L15.8879 108.56C16.5501 108.396 15.8879 107.3 16.2043 106.702C16.3222 106.54 16.4973 106.429 16.6942 106.391C16.8911 106.352 17.0951 106.391 17.265 106.497C17.5997 106.722 17.8686 107.031 18.0444 107.394L21.7421 105.823L22.4687 105.519C22.5103 105.015 22.7162 104.54 23.0547 104.165C23.3594 105.062 24.6369 104.979 25.5393 104.716C30.0125 103.427 34.4446 102.008 38.8357 100.461" stroke="#263238" stroke-linecap="round" stroke-linejoin="round"/>
<path d="M13.8428 114.701C14.294 114.76 14.4698 114.115 14.839 113.857C15.2082 113.6 15.7004 113.734 16.1458 113.723C16.5911 113.711 17.1361 113.342 16.9486 112.937C17.306 113.412 18.0503 113.26 18.607 113.06L33.257 107.816" stroke="#263238" stroke-linecap="round" stroke-linejoin="round"/>
<path d="M206.537 19.5173H60.4239C57.5791 19.5173 55.2729 21.8235 55.2729 24.6683V156.296C55.2729 159.14 57.5791 161.447 60.4239 161.447H206.537C209.382 161.447 211.688 159.14 211.688 156.296V24.6683C211.688 21.8235 209.382 19.5173 206.537 19.5173Z" fill="white"/>
<path opacity="0.2" d="M211.688 97.2618V156.448C211.688 157.773 211.162 159.043 210.226 159.98C209.29 160.918 208.02 161.445 206.695 161.446H60.2715C58.9458 161.446 57.6744 160.92 56.737 159.982C55.7996 159.045 55.2729 157.774 55.2729 156.448V144.728H55.5835V152.627C55.5835 153.378 55.7315 154.121 56.019 154.815C56.3065 155.509 56.7279 156.139 57.259 156.669C57.7902 157.2 58.4208 157.621 59.1146 157.907C59.8085 158.194 60.5521 158.341 61.3029 158.341H202.757C203.508 158.341 204.252 158.194 204.946 157.907C205.64 157.621 206.27 157.2 206.801 156.669C207.332 156.139 207.754 155.509 208.041 154.815C208.329 154.121 208.477 153.378 208.477 152.627V106.04C208.477 104.985 208.058 103.973 207.311 103.227C206.565 102.48 205.553 102.061 204.498 102.061H55.2729V97.2618H211.688Z" fill="black"/>
<path d="M206.537 19.5173H60.4239C57.5791 19.5173 55.2729 21.8235 55.2729 24.6683V156.296C55.2729 159.14 57.5791 161.447 60.4239 161.447H206.537C209.382 161.447 211.688 159.14 211.688 156.296V24.6683C211.688 21.8235 209.382 19.5173 206.537 19.5173Z" stroke="#263238" stroke-linecap="round" stroke-linejoin="round"/>
<path d="M198.069 114.115V107.335C198.07 107.006 198.006 106.679 197.88 106.375C197.754 106.07 197.57 105.793 197.337 105.56C197.104 105.327 196.827 105.142 196.522 105.017C196.217 104.891 195.891 104.826 195.561 104.827H71.3997C70.7345 104.827 70.0966 105.091 69.6262 105.562C69.1559 106.032 68.8916 106.67 68.8916 107.335V114.115C68.8916 114.78 68.6274 115.418 68.1571 115.889C67.6867 116.359 67.0487 116.623 66.3836 116.623V116.623C65.7168 116.623 65.0774 116.888 64.6059 117.36C64.1345 117.831 63.8696 118.471 63.8696 119.137V132.516C63.8696 135.601 65.0952 138.559 67.2766 140.741C69.458 142.922 72.4167 144.148 75.5017 144.148V144.148C75.9975 144.148 76.473 144.345 76.8235 144.695C77.1741 145.046 77.3711 145.521 77.3711 146.017V150.025C77.3711 151.505 77.9588 152.924 79.005 153.97C80.0512 155.016 81.4702 155.604 82.9498 155.604H184.011C185.491 155.604 186.91 155.016 187.956 153.97C189.002 152.924 189.59 151.505 189.59 150.025V146.017C189.59 145.521 189.787 145.046 190.138 144.695C190.488 144.345 190.964 144.148 191.459 144.148C192.987 144.148 194.5 143.847 195.911 143.262C197.322 142.678 198.604 141.821 199.685 140.741C200.765 139.661 201.621 138.378 202.206 136.967C202.791 135.556 203.091 134.043 203.091 132.516V119.137C203.091 118.472 202.827 117.833 202.357 117.362C201.887 116.89 201.249 116.625 200.583 116.623C199.918 116.623 199.279 116.359 198.808 115.889C198.337 115.419 198.071 114.781 198.069 114.115V114.115Z" fill="#263238"/>
<path d="M78.402 108.666H74.0598C73.5283 108.666 73.0185 108.877 72.6427 109.253C72.2668 109.628 72.0557 110.138 72.0557 110.67V111.783C72.0557 114.092 73.925 117.022 76.2338 117.022C78.5427 117.022 80.412 114.092 80.412 111.783V110.67C80.4105 110.138 80.198 109.628 79.8212 109.252C79.4445 108.876 78.9341 108.666 78.402 108.666V108.666Z" fill="white" stroke="#263238" stroke-linecap="round" stroke-linejoin="round"/>
<path d="M88.7922 108.666H84.4499C83.9179 108.666 83.4075 108.876 83.0307 109.252C82.6539 109.628 82.4415 110.138 82.4399 110.67V111.783C82.4399 114.092 84.3093 117.022 86.6181 117.022C88.927 117.022 90.7963 114.092 90.7963 111.783V110.67C90.7963 110.138 90.5851 109.628 90.2093 109.253C89.8335 108.877 89.3237 108.666 88.7922 108.666V108.666Z" fill="white" stroke="#263238" stroke-linecap="round" stroke-linejoin="round"/>
<path d="M99.2228 108.666H94.8806C94.3491 108.666 93.8393 108.877 93.4635 109.253C93.0876 109.628 92.8765 110.138 92.8765 110.67V111.783C92.8765 114.092 94.7458 117.022 97.0488 117.022C99.3518 117.022 101.227 114.092 101.227 111.783V110.67C101.227 110.138 101.016 109.628 100.64 109.253C100.264 108.877 99.7544 108.666 99.2228 108.666V108.666Z" fill="white" stroke="#263238" stroke-linecap="round" stroke-linejoin="round"/>
<path d="M109.63 108.666H105.288C104.756 108.666 104.247 108.877 103.871 109.253C103.495 109.628 103.284 110.138 103.284 110.67V111.783C103.284 114.092 105.153 117.022 107.462 117.022C109.771 117.022 111.634 114.092 111.634 111.783V110.67C111.634 110.406 111.582 110.146 111.482 109.903C111.381 109.66 111.233 109.439 111.047 109.253C110.861 109.066 110.64 108.919 110.397 108.818C110.154 108.717 109.893 108.666 109.63 108.666V108.666Z" fill="white" stroke="#263238" stroke-linecap="round" stroke-linejoin="round"/>
<path d="M120.038 108.666H115.696C115.164 108.666 114.654 108.877 114.278 109.253C113.903 109.628 113.691 110.138 113.691 110.67V111.783C113.691 114.092 115.561 117.022 117.87 117.022C120.178 117.022 122.048 114.092 122.048 111.783V110.67C122.046 110.138 121.834 109.628 121.457 109.252C121.08 108.876 120.57 108.666 120.038 108.666V108.666Z" fill="white" stroke="#263238" stroke-linecap="round" stroke-linejoin="round"/>
<path d="M130.451 108.666H126.109C125.577 108.666 125.066 108.876 124.689 109.252C124.313 109.628 124.1 110.138 124.099 110.67V111.783C124.099 114.092 125.968 117.022 128.277 117.022C130.586 117.022 132.455 114.092 132.455 111.783V110.67C132.455 110.138 132.244 109.628 131.868 109.253C131.492 108.877 130.982 108.666 130.451 108.666V108.666Z" fill="white" stroke="#263238" stroke-linecap="round" stroke-linejoin="round"/>
<path d="M140.858 108.666H136.516C135.984 108.666 135.475 108.877 135.099 109.253C134.723 109.628 134.512 110.138 134.512 110.67V111.783C134.512 114.092 136.381 117.022 138.684 117.022C140.987 117.022 142.862 114.092 142.862 111.783V110.67C142.862 110.138 142.651 109.628 142.275 109.253C141.899 108.877 141.39 108.666 140.858 108.666V108.666Z" fill="white" stroke="#263238" stroke-linecap="round" stroke-linejoin="round"/>
<path d="M151.265 108.666H146.923C146.392 108.666 145.882 108.877 145.506 109.253C145.13 109.628 144.919 110.138 144.919 110.67V111.783C144.919 114.092 146.788 117.022 149.097 117.022C151.406 117.022 153.269 114.092 153.269 111.783V110.67C153.269 110.138 153.058 109.628 152.682 109.253C152.307 108.877 151.797 108.666 151.265 108.666V108.666Z" fill="white" stroke="#263238" stroke-linecap="round" stroke-linejoin="round"/>
<path d="M161.673 108.665H157.354C157.091 108.665 156.83 108.717 156.587 108.818C156.344 108.919 156.123 109.066 155.937 109.252C155.751 109.439 155.603 109.659 155.503 109.903C155.402 110.146 155.35 110.406 155.35 110.67V111.783C155.35 114.092 157.219 117.022 159.528 117.022C161.837 117.022 163.706 114.092 163.706 111.783V110.67C163.706 110.404 163.652 110.141 163.55 109.897C163.447 109.652 163.296 109.43 163.107 109.244C162.918 109.057 162.694 108.91 162.448 108.811C162.202 108.712 161.938 108.662 161.673 108.665V108.665Z" fill="white" stroke="#263238" stroke-linecap="round" stroke-linejoin="round"/>
<path d="M172.086 108.666H167.744C167.212 108.666 166.701 108.876 166.325 109.252C165.948 109.628 165.735 110.138 165.734 110.67V111.783C165.734 114.092 167.603 117.022 169.912 117.022C172.221 117.022 174.09 114.092 174.09 111.783V110.67C174.09 110.138 173.879 109.628 173.503 109.253C173.127 108.877 172.618 108.666 172.086 108.666V108.666Z" fill="white" stroke="#263238" stroke-linecap="round" stroke-linejoin="round"/>
<path d="M182.493 108.666H178.151C177.62 108.666 177.11 108.877 176.734 109.253C176.358 109.628 176.147 110.138 176.147 110.67V111.783C176.147 114.092 178.016 117.022 180.319 117.022C182.622 117.022 184.497 114.092 184.497 111.783V110.67C184.497 110.138 184.286 109.628 183.91 109.253C183.535 108.877 183.025 108.666 182.493 108.666V108.666Z" fill="white" stroke="#263238" stroke-linecap="round" stroke-linejoin="round"/>
<path d="M192.901 108.665H188.559C188.027 108.665 187.518 108.877 187.142 109.252C186.766 109.628 186.555 110.138 186.555 110.67V111.783C186.555 114.086 188.412 117.016 190.756 117.016C193.1 117.016 194.929 114.086 194.929 111.777V110.664C194.928 110.399 194.875 110.137 194.772 109.893C194.67 109.649 194.52 109.428 194.331 109.242C194.143 109.056 193.919 108.91 193.674 108.811C193.428 108.712 193.166 108.662 192.901 108.665V108.665Z" fill="white" stroke="#263238" stroke-linecap="round" stroke-linejoin="round"/>
<path d="M78.402 130.723H74.0598C73.5283 130.723 73.0185 130.934 72.6427 131.31C72.2668 131.685 72.0557 132.195 72.0557 132.727V133.84C72.0557 136.149 73.925 139.079 76.2338 139.079C78.5427 139.079 80.412 136.149 80.412 133.84V132.727C80.4105 132.195 80.198 131.685 79.8212 131.309C79.4445 130.933 78.9341 130.723 78.402 130.723V130.723Z" fill="white" stroke="#263238" stroke-linecap="round" stroke-linejoin="round"/>
<path d="M88.7922 130.723H84.4499C83.9179 130.723 83.4075 130.933 83.0307 131.309C82.6539 131.685 82.4415 132.195 82.4399 132.727V133.84C82.4399 136.149 84.3093 139.079 86.6181 139.079C88.927 139.079 90.7963 136.149 90.7963 133.84V132.727C90.7963 132.195 90.5851 131.685 90.2093 131.31C89.8335 130.934 89.3237 130.723 88.7922 130.723V130.723Z" fill="white" stroke="#263238" stroke-linecap="round" stroke-linejoin="round"/>
<path d="M99.2228 130.723H94.8806C94.3491 130.723 93.8393 130.934 93.4635 131.31C93.0876 131.685 92.8765 132.195 92.8765 132.727V133.84C92.8765 136.149 94.7458 139.079 97.0488 139.079C99.3518 139.079 101.227 136.149 101.227 133.84V132.727C101.227 132.195 101.016 131.685 100.64 131.31C100.264 130.934 99.7544 130.723 99.2228 130.723V130.723Z" fill="white" stroke="#263238" stroke-linecap="round" stroke-linejoin="round"/>
<path d="M109.63 130.723H105.288C104.756 130.723 104.247 130.934 103.871 131.31C103.495 131.685 103.284 132.195 103.284 132.727V133.84C103.284 136.149 105.153 139.079 107.462 139.079C109.771 139.079 111.634 136.149 111.634 133.84V132.727C111.634 132.463 111.582 132.203 111.482 131.96C111.381 131.717 111.233 131.496 111.047 131.31C110.861 131.123 110.64 130.976 110.397 130.875C110.154 130.774 109.893 130.723 109.63 130.723V130.723Z" fill="white" stroke="#263238" stroke-linecap="round" stroke-linejoin="round"/>
<path d="M120.038 130.723H115.696C115.164 130.723 114.654 130.934 114.278 131.31C113.903 131.685 113.691 132.195 113.691 132.727V133.84C113.691 136.149 115.561 139.079 117.87 139.079C120.178 139.079 122.048 136.149 122.048 133.84V132.727C122.046 132.195 121.834 131.685 121.457 131.309C121.08 130.933 120.57 130.723 120.038 130.723V130.723Z" fill="white" stroke="#263238" stroke-linecap="round" stroke-linejoin="round"/>
<path d="M130.451 130.723H126.109C125.577 130.723 125.066 130.933 124.689 131.309C124.313 131.685 124.1 132.195 124.099 132.727V133.84C124.099 136.149 125.968 139.079 128.277 139.079C130.586 139.079 132.455 136.149 132.455 133.84V132.727C132.455 132.195 132.244 131.685 131.868 131.31C131.492 130.934 130.982 130.723 130.451 130.723Z" fill="white" stroke="#263238" stroke-linecap="round" stroke-linejoin="round"/>
<path d="M140.858 130.723H136.516C135.984 130.723 135.475 130.934 135.099 131.31C134.723 131.685 134.512 132.195 134.512 132.727V133.84C134.512 136.149 136.381 139.079 138.684 139.079C140.987 139.079 142.862 136.149 142.862 133.84V132.727C142.862 132.195 142.651 131.685 142.275 131.31C141.899 130.934 141.39 130.723 140.858 130.723V130.723Z" fill="white" stroke="#263238" stroke-linecap="round" stroke-linejoin="round"/>
<path d="M151.265 130.723H146.923C146.392 130.723 145.882 130.934 145.506 131.31C145.13 131.685 144.919 132.195 144.919 132.727V133.84C144.919 136.149 146.788 139.079 149.097 139.079C151.406 139.079 153.269 136.149 153.269 133.84V132.727C153.269 132.195 153.058 131.685 152.682 131.31C152.307 130.934 151.797 130.723 151.265 130.723V130.723Z" fill="white" stroke="#263238" stroke-linecap="round" stroke-linejoin="round"/>
<path d="M161.673 130.723H157.354C157.091 130.723 156.83 130.774 156.587 130.875C156.344 130.976 156.123 131.123 155.937 131.31C155.751 131.496 155.603 131.717 155.503 131.96C155.402 132.203 155.35 132.463 155.35 132.727V133.84C155.35 136.149 157.219 139.079 159.528 139.079C161.837 139.079 163.706 136.149 163.706 133.84V132.727C163.706 132.461 163.652 132.199 163.55 131.954C163.447 131.709 163.296 131.487 163.107 131.301C162.918 131.115 162.694 130.967 162.448 130.868C162.202 130.769 161.938 130.719 161.673 130.723V130.723Z" fill="white" stroke="#263238" stroke-linecap="round" stroke-linejoin="round"/>
<path d="M172.086 130.723H167.744C167.212 130.723 166.701 130.933 166.325 131.309C165.948 131.685 165.735 132.195 165.734 132.727V133.84C165.734 136.149 167.603 139.079 169.912 139.079C172.221 139.079 174.09 136.149 174.09 133.84V132.727C174.09 132.195 173.879 131.685 173.503 131.31C173.127 130.934 172.618 130.723 172.086 130.723V130.723Z" fill="white" stroke="#263238" stroke-linecap="round" stroke-linejoin="round"/>
<path d="M182.493 130.723H178.151C177.62 130.723 177.11 130.934 176.734 131.31C176.358 131.685 176.147 132.195 176.147 132.727V133.84C176.147 136.149 178.016 139.079 180.319 139.079C182.622 139.079 184.497 136.149 184.497 133.84V132.727C184.497 132.195 184.286 131.685 183.91 131.31C183.535 130.934 183.025 130.723 182.493 130.723Z" fill="white" stroke="#263238" stroke-linecap="round" stroke-linejoin="round"/>
<path d="M192.901 130.723H188.559C188.027 130.723 187.518 130.934 187.142 131.31C186.766 131.685 186.555 132.195 186.555 132.727V133.84C186.555 136.149 188.424 139.079 190.733 139.079C193.042 139.079 194.905 136.149 194.905 133.84V132.727C194.905 132.195 194.694 131.685 194.318 131.31C193.942 130.934 193.433 130.723 192.901 130.723V130.723Z" fill="white" stroke="#263238" stroke-linecap="round" stroke-linejoin="round"/>
<path d="M73.1984 120.051H68.8679C68.3364 120.051 67.8266 120.263 67.4508 120.638C67.0749 121.014 66.8638 121.524 66.8638 122.056V123.169C66.8638 125.472 68.7331 128.408 71.0419 128.408C73.3508 128.408 75.2143 125.478 75.2143 123.169V122.056C75.2143 121.791 75.162 121.53 75.0606 121.286C74.9591 121.042 74.8105 120.821 74.6231 120.634C74.4358 120.448 74.2135 120.301 73.969 120.201C73.7245 120.101 73.4626 120.05 73.1984 120.051V120.051Z" fill="white" stroke="#263238" stroke-linecap="round" stroke-linejoin="round"/>
<path d="M83.6061 120.051H79.2639C78.7324 120.051 78.2226 120.263 77.8468 120.638C77.4709 121.014 77.2598 121.524 77.2598 122.056V123.169C77.2598 125.472 79.1291 128.408 81.4379 128.408C83.7468 128.408 85.6161 125.478 85.6161 123.169V122.056C85.6146 121.523 85.4021 121.014 85.0253 120.638C84.6486 120.262 84.1382 120.051 83.6061 120.051V120.051Z" fill="white" stroke="#263238" stroke-linecap="round" stroke-linejoin="round"/>
<path d="M94.0192 120.051H89.677C89.1449 120.051 88.6345 120.262 88.2578 120.638C87.881 121.014 87.6685 121.523 87.667 122.056V123.169C87.667 125.472 89.5422 128.408 91.8452 128.408C94.1482 128.408 96.0233 125.478 96.0233 123.169V122.056C96.0233 121.524 95.8122 121.014 95.4364 120.638C95.0605 120.263 94.5508 120.051 94.0192 120.051V120.051Z" fill="white" stroke="#263238" stroke-linecap="round" stroke-linejoin="round"/>
<path d="M104.426 120.051H100.084C99.5527 120.051 99.0429 120.263 98.6671 120.638C98.2912 121.014 98.0801 121.524 98.0801 122.056V123.169C98.0801 125.472 99.9494 128.408 102.252 128.408C104.555 128.408 106.431 125.478 106.431 123.169V122.056C106.431 121.792 106.379 121.532 106.278 121.289C106.177 121.045 106.03 120.824 105.844 120.638C105.657 120.452 105.437 120.305 105.193 120.204C104.95 120.103 104.69 120.051 104.426 120.051V120.051Z" fill="white" stroke="#263238" stroke-linecap="round" stroke-linejoin="round"/>
<path d="M114.834 120.051H110.474C109.942 120.051 109.433 120.263 109.057 120.638C108.681 121.014 108.47 121.524 108.47 122.056V123.169C108.47 125.472 110.339 128.408 112.648 128.408C114.957 128.408 116.82 125.478 116.82 123.169V122.056C116.82 121.527 116.612 121.02 116.239 120.645C115.867 120.269 115.362 120.056 114.834 120.051V120.051Z" fill="white" stroke="#263238" stroke-linecap="round" stroke-linejoin="round"/>
<path d="M125.241 120.051H120.899C120.368 120.051 119.858 120.263 119.482 120.638C119.106 121.014 118.895 121.524 118.895 122.056V123.169C118.895 125.472 120.764 128.408 123.073 128.408C125.382 128.408 127.251 125.478 127.251 123.169V122.056C127.25 121.523 127.037 121.014 126.661 120.638C126.284 120.262 125.773 120.051 125.241 120.051V120.051Z" fill="white" stroke="#263238" stroke-linecap="round" stroke-linejoin="round"/>
<path d="M135.672 120.051H131.33C130.798 120.051 130.287 120.262 129.911 120.638C129.534 121.014 129.321 121.523 129.32 122.056V123.169C129.32 125.472 131.195 128.408 133.498 128.408C135.801 128.408 137.676 125.478 137.676 123.169V122.056C137.676 121.524 137.465 121.014 137.089 120.638C136.713 120.263 136.204 120.051 135.672 120.051V120.051Z" fill="white" stroke="#263238" stroke-linecap="round" stroke-linejoin="round"/>
<path d="M146.062 120.051H141.719C141.188 120.051 140.678 120.263 140.302 120.638C139.926 121.014 139.715 121.524 139.715 122.056V123.169C139.715 125.472 141.585 128.408 143.888 128.408C146.191 128.408 148.066 125.478 148.066 123.169V122.056C148.066 121.524 147.855 121.014 147.479 120.638C147.103 120.263 146.593 120.051 146.062 120.051Z" fill="white" stroke="#263238" stroke-linecap="round" stroke-linejoin="round"/>
<path d="M156.469 120.051H152.127C151.595 120.051 151.085 120.263 150.71 120.638C150.334 121.014 150.123 121.524 150.123 122.056V123.169C150.123 125.472 151.992 128.408 154.301 128.408C156.61 128.408 158.473 125.478 158.473 123.169V122.056C158.473 121.524 158.262 121.014 157.886 120.638C157.51 120.263 157 120.051 156.469 120.051Z" fill="white" stroke="#263238" stroke-linecap="round" stroke-linejoin="round"/>
<path d="M166.877 120.051H162.534C162.003 120.051 161.493 120.263 161.117 120.638C160.741 121.014 160.53 121.524 160.53 122.056V123.169C160.53 125.472 162.4 128.408 164.708 128.408C167.017 128.408 168.887 125.478 168.887 123.169V122.056C168.885 121.523 168.673 121.014 168.296 120.638C167.919 120.262 167.409 120.051 166.877 120.051V120.051Z" fill="white" stroke="#263238" stroke-linecap="round" stroke-linejoin="round"/>
<path d="M177.278 120.051H172.936C172.404 120.051 171.893 120.262 171.517 120.638C171.14 121.014 170.927 121.523 170.926 122.056V123.169C170.926 125.472 172.801 128.408 175.104 128.408C177.407 128.408 179.282 125.478 179.282 123.169V122.056C179.282 121.524 179.071 121.014 178.695 120.638C178.319 120.263 177.81 120.051 177.278 120.051Z" fill="white" stroke="#263238" stroke-linecap="round" stroke-linejoin="round"/>
<path d="M187.697 120.051H183.355C182.828 120.059 182.326 120.274 181.956 120.649C181.587 121.024 181.38 121.529 181.38 122.056V123.169C181.38 125.472 183.249 128.408 185.552 128.408C187.855 128.408 189.73 125.478 189.73 123.169V122.056C189.73 121.79 189.678 121.527 189.575 121.282C189.473 121.037 189.322 120.815 189.133 120.628C188.944 120.442 188.719 120.295 188.473 120.196C188.226 120.097 187.963 120.048 187.697 120.051V120.051Z" fill="white" stroke="#263238" stroke-linecap="round" stroke-linejoin="round"/>
<path d="M198.105 120.051H193.762C193.231 120.051 192.721 120.263 192.345 120.638C191.969 121.014 191.758 121.524 191.758 122.056V123.169C191.758 125.472 193.628 128.408 195.936 128.408C198.245 128.408 200.109 125.478 200.109 123.169V122.056C200.109 121.524 199.898 121.014 199.522 120.638C199.146 120.263 198.636 120.051 198.105 120.051V120.051Z" fill="white" stroke="#263238" stroke-linecap="round" stroke-linejoin="round"/>
<path d="M173.235 141.833H93.7263C92.6874 141.833 91.8452 142.675 91.8452 143.714V149.422C91.8452 150.461 92.6874 151.303 93.7263 151.303H173.235C174.274 151.303 175.116 150.461 175.116 149.422V143.714C175.116 142.675 174.274 141.833 173.235 141.833Z" fill="white" stroke="#263238" stroke-linecap="round" stroke-linejoin="round"/>
<path d="M183.883 142.39H179.54C179.009 142.39 178.499 142.601 178.123 142.977C177.747 143.353 177.536 143.862 177.536 144.394V145.507C177.536 147.816 179.405 150.746 181.714 150.746C184.023 150.746 185.887 147.816 185.887 145.507V144.394C185.887 143.862 185.675 143.353 185.3 142.977C184.924 142.601 184.414 142.39 183.883 142.39Z" fill="white" stroke="#263238" stroke-linecap="round" stroke-linejoin="round"/>
<path d="M87.4206 142.39H83.0783C82.5468 142.39 82.0371 142.601 81.6612 142.977C81.2854 143.353 81.0742 143.862 81.0742 144.394V145.507C81.0742 147.816 82.9436 150.746 85.2524 150.746C87.5612 150.746 89.4306 147.816 89.4306 145.507V144.394C89.429 143.862 89.2166 143.352 88.8398 142.976C88.463 142.601 87.9527 142.39 87.4206 142.39V142.39Z" fill="white" stroke="#263238" stroke-linecap="round" stroke-linejoin="round"/>
<path opacity="0.2" d="M78.6427 111.847C78.853 111.848 79.0628 111.868 79.2697 111.906C79.2697 111.865 79.2697 111.824 79.2697 111.783V110.67C79.2682 110.439 79.1755 110.218 79.0119 110.056C78.8483 109.893 78.6271 109.802 78.3966 109.802H74.0543C73.8248 109.804 73.605 109.896 73.4427 110.058C73.2804 110.22 73.1885 110.44 73.187 110.67V111.783C73.187 113.383 74.359 115.399 75.742 115.803C75.3142 114.027 76.2752 111.847 78.6427 111.847Z" fill="black"/>
<path opacity="0.2" d="M89.2843 111.549C89.417 111.539 89.5501 111.539 89.6828 111.549V110.646C89.6812 110.417 89.5894 110.197 89.4271 110.035C89.2647 109.872 89.045 109.78 88.8155 109.779H84.4732C84.2427 109.779 84.0215 109.87 83.8579 110.032C83.6943 110.195 83.6016 110.416 83.6001 110.646V111.759C83.6001 113.517 84.9889 115.715 86.5301 115.861C85.821 114.045 86.7528 111.549 89.2843 111.549Z" fill="black"/>
<path opacity="0.2" d="M100.002 111.396H100.09V110.664C100.09 110.434 99.9986 110.213 99.836 110.05C99.6733 109.888 99.4527 109.796 99.2227 109.796H94.8805C94.6499 109.796 94.4287 109.888 94.2651 110.05C94.1016 110.213 94.0089 110.433 94.0073 110.664V111.777C94.0073 113.564 95.484 115.879 97.0487 115.879C97.1247 115.885 97.2011 115.885 97.2772 115.879C96.492 114.027 97.4003 111.396 100.002 111.396Z" fill="black"/>
<path opacity="0.2" d="M109.748 111.097C109.991 111.09 110.235 111.11 110.474 111.156V110.646C110.474 110.416 110.383 110.195 110.22 110.033C110.058 109.87 109.837 109.779 109.607 109.779H105.265C105.035 109.779 104.814 109.87 104.651 110.033C104.489 110.195 104.397 110.416 104.397 110.646V111.759C104.397 113.435 105.687 115.568 107.14 115.861C106.144 114.021 107.005 111.097 109.748 111.097Z" fill="black"/>
<path opacity="0.2" d="M120.688 111.097H120.911V110.658C120.909 110.427 120.817 110.207 120.653 110.044C120.489 109.882 120.268 109.791 120.038 109.791H115.695C115.466 109.792 115.246 109.884 115.084 110.046C114.922 110.209 114.83 110.428 114.828 110.658V111.771C114.828 113.559 116.305 115.873 117.869 115.873C117.949 115.879 118.03 115.879 118.11 115.873C117.084 114.027 117.946 111.097 120.688 111.097Z" fill="black"/>
<path opacity="0.2" d="M131.183 111.156H131.318V110.646C131.316 110.417 131.225 110.197 131.062 110.035C130.9 109.872 130.68 109.78 130.451 109.779H126.108C125.878 109.779 125.657 109.87 125.493 110.032C125.33 110.195 125.237 110.416 125.235 110.646V111.759C125.235 113.547 126.712 115.861 128.277 115.861C128.372 115.87 128.468 115.87 128.564 115.861C127.603 114.016 128.476 111.156 131.183 111.156Z" fill="black"/>
<path opacity="0.2" d="M141.227 111.097C141.394 111.1 141.56 111.111 141.725 111.132V110.67C141.725 110.44 141.634 110.219 141.471 110.056C141.309 109.894 141.088 109.802 140.858 109.802H136.516C136.286 109.802 136.065 109.894 135.902 110.056C135.74 110.219 135.648 110.44 135.648 110.67V111.783C135.648 113.541 137.102 115.85 138.655 115.885C137.617 114.045 138.473 111.097 141.227 111.097Z" fill="black"/>
<path opacity="0.2" d="M152.133 111.25V110.664C152.133 110.434 152.042 110.213 151.879 110.05C151.716 109.888 151.496 109.796 151.266 109.796H146.923C146.693 109.796 146.473 109.888 146.31 110.05C146.148 110.213 146.056 110.434 146.056 110.664V111.777C146.056 113.564 147.527 115.879 149.098 115.879C149.255 115.877 149.411 115.851 149.56 115.803C148.717 113.998 149.578 111.332 152.133 111.25Z" fill="black"/>
<path opacity="0.2" d="M161.691 111.021C161.979 111.02 162.267 111.058 162.546 111.132V110.67C162.545 110.439 162.452 110.218 162.288 110.056C162.125 109.893 161.903 109.802 161.673 109.802H157.354C157.125 109.804 156.905 109.896 156.743 110.058C156.58 110.22 156.488 110.44 156.487 110.67V111.783C156.487 113.435 157.741 115.522 159.165 115.838C158.069 114.004 158.919 111.021 161.691 111.021Z" fill="black"/>
<path opacity="0.2" d="M172.332 111.021C172.541 111.022 172.748 111.041 172.953 111.08V110.67C172.952 110.44 172.86 110.22 172.698 110.058C172.535 109.896 172.316 109.804 172.086 109.802H167.744C167.513 109.802 167.292 109.893 167.128 110.056C166.965 110.218 166.872 110.439 166.871 110.67V111.783C166.871 113.541 168.277 115.774 169.801 115.885C168.699 114.045 169.543 111.021 172.332 111.021Z" fill="black"/>
<path opacity="0.2" d="M182.903 111.32C183.056 111.322 183.209 111.334 183.361 111.355V110.67C183.361 110.44 183.269 110.219 183.107 110.056C182.944 109.894 182.723 109.802 182.493 109.802H178.151C178.037 109.802 177.924 109.825 177.819 109.868C177.714 109.912 177.618 109.976 177.538 110.056C177.457 110.137 177.393 110.232 177.35 110.338C177.306 110.443 177.284 110.556 177.284 110.67V111.783C177.284 113.541 178.69 115.768 180.214 115.885C179.364 114.033 180.261 111.32 182.903 111.32Z" fill="black"/>
<path opacity="0.2" d="M193.768 111.185V110.67C193.768 110.44 193.677 110.219 193.514 110.056C193.352 109.894 193.131 109.802 192.901 109.802H188.559C188.329 109.802 188.108 109.894 187.945 110.056C187.783 110.219 187.691 110.44 187.691 110.67V111.783C187.691 113.57 189.162 115.885 190.733 115.885C190.959 115.882 191.182 115.834 191.389 115.744C190.557 113.975 191.342 111.384 193.768 111.185Z" fill="black"/>
<path opacity="0.2" d="M78.9415 132.838C79.0528 132.832 79.1643 132.832 79.2755 132.838V132.715C79.274 132.484 79.1813 132.264 79.0177 132.101C78.8542 131.939 78.633 131.848 78.4024 131.848H74.0601C73.8306 131.849 73.6109 131.941 73.4486 132.103C73.2863 132.266 73.1944 132.485 73.1929 132.715V133.828C73.1929 135.616 74.6696 137.93 76.2342 137.93C76.3424 137.928 76.4502 137.916 76.5565 137.895C75.2439 136.114 76.0408 132.838 78.9415 132.838Z" fill="black"/>
<path opacity="0.2" d="M89.1378 132.838C89.3204 132.839 89.5027 132.854 89.6828 132.885V132.733C89.6812 132.503 89.5894 132.283 89.4271 132.121C89.2647 131.959 89.045 131.867 88.8155 131.865H84.4732C84.2427 131.865 84.0215 131.956 83.8579 132.119C83.6943 132.281 83.6016 132.502 83.6001 132.733V133.846C83.6001 135.633 85.0768 137.948 86.6414 137.948H86.7704C85.4284 136.143 86.2195 132.838 89.1378 132.838Z" fill="black"/>
<path opacity="0.2" d="M99.4806 132.985C99.6771 132.985 99.8732 133.003 100.067 133.037V132.727C100.067 132.613 100.044 132.5 100.001 132.395C99.957 132.29 99.8931 132.194 99.8126 132.113C99.732 132.033 99.6364 131.969 99.5312 131.925C99.426 131.882 99.3132 131.859 99.1993 131.859H94.857C94.6265 131.859 94.4053 131.951 94.2417 132.113C94.0781 132.276 93.9854 132.496 93.9839 132.727V133.84C93.9839 135.598 95.4372 137.901 96.9901 137.942C95.8239 136.12 96.6385 132.985 99.4806 132.985Z" fill="black"/>
<path opacity="0.2" d="M110.046 133.061C110.197 133.061 110.348 133.071 110.498 133.09V132.727C110.498 132.613 110.475 132.5 110.432 132.395C110.388 132.29 110.324 132.194 110.244 132.113C110.163 132.033 110.068 131.969 109.962 131.925C109.857 131.882 109.744 131.859 109.63 131.859H105.288C105.174 131.859 105.062 131.882 104.956 131.925C104.851 131.969 104.755 132.033 104.675 132.113C104.594 132.194 104.53 132.29 104.487 132.395C104.443 132.5 104.421 132.613 104.421 132.727V133.84C104.421 135.627 105.892 137.942 107.462 137.942H107.533C106.407 136.108 107.245 133.061 110.046 133.061Z" fill="black"/>
<path opacity="0.2" d="M120.243 132.838C120.467 132.838 120.691 132.86 120.911 132.902V132.733C120.909 132.502 120.817 132.281 120.653 132.119C120.489 131.956 120.268 131.865 120.038 131.865H115.695C115.466 131.867 115.246 131.959 115.084 132.121C114.922 132.283 114.83 132.503 114.828 132.733V133.846C114.828 135.633 116.305 137.948 117.869 137.948C116.533 136.155 117.319 132.838 120.243 132.838Z" fill="black"/>
<path opacity="0.2" d="M130.808 132.908C130.979 132.91 131.149 132.923 131.318 132.949V132.727C131.316 132.497 131.225 132.277 131.062 132.115C130.9 131.953 130.68 131.861 130.451 131.859H126.108C125.878 131.859 125.657 131.951 125.493 132.113C125.33 132.276 125.237 132.496 125.235 132.727V133.84C125.235 135.627 126.712 137.942 128.277 137.942H128.388C127.122 136.125 127.931 132.908 130.808 132.908Z" fill="black"/>
<path opacity="0.2" d="M141.602 133.131H141.725V132.721C141.725 132.491 141.634 132.27 141.471 132.108C141.309 131.945 141.088 131.854 140.858 131.854H136.516C136.286 131.854 136.065 131.945 135.902 132.108C135.74 132.27 135.648 132.491 135.648 132.721V133.834C135.648 135.621 137.119 137.936 138.684 137.936C138.798 137.934 138.912 137.921 139.024 137.895C138.016 136.067 138.854 133.131 141.602 133.131Z" fill="black"/>
<path opacity="0.2" d="M152.08 132.908H152.115V132.727C152.115 132.613 152.093 132.5 152.049 132.395C152.006 132.29 151.942 132.194 151.861 132.113C151.781 132.033 151.685 131.969 151.58 131.925C151.475 131.882 151.362 131.859 151.248 131.859H146.923C146.81 131.859 146.697 131.882 146.592 131.925C146.486 131.969 146.391 132.033 146.31 132.113C146.23 132.194 146.166 132.29 146.122 132.395C146.079 132.5 146.056 132.613 146.056 132.727V133.84C146.056 135.627 147.527 137.942 149.098 137.942C149.277 137.939 149.455 137.908 149.625 137.848C148.435 136.032 149.262 132.908 152.08 132.908Z" fill="black"/>
<path opacity="0.2" d="M162.212 132.686H162.54C162.531 132.461 162.436 132.249 162.274 132.093C162.113 131.937 161.898 131.849 161.673 131.848H157.354C157.125 131.849 156.905 131.941 156.743 132.103C156.58 132.266 156.488 132.485 156.487 132.715V133.828C156.487 135.616 157.964 137.93 159.528 137.93C159.671 137.926 159.813 137.904 159.95 137.866C158.479 136.12 159.241 132.686 162.212 132.686Z" fill="black"/>
<path opacity="0.2" d="M172.936 132.838V132.733C172.934 132.503 172.842 132.283 172.68 132.121C172.518 131.959 172.298 131.867 172.068 131.865H167.726C167.496 131.865 167.274 131.956 167.111 132.119C166.947 132.281 166.855 132.502 166.853 132.733V133.846C166.853 135.633 168.33 137.948 169.894 137.948C170.094 137.945 170.292 137.909 170.48 137.842C169.256 136.026 170.064 132.838 172.936 132.838Z" fill="black"/>
<path opacity="0.2" d="M183.138 132.838H183.373V132.721C183.373 132.607 183.35 132.494 183.307 132.389C183.263 132.284 183.199 132.188 183.119 132.108C183.038 132.027 182.943 131.963 182.837 131.92C182.732 131.876 182.619 131.854 182.505 131.854H178.163C177.933 131.854 177.713 131.945 177.55 132.108C177.387 132.27 177.296 132.491 177.296 132.721V133.834C177.296 135.621 178.767 137.936 180.331 137.936C180.47 137.934 180.608 137.915 180.742 137.878C179.435 136.084 180.238 132.838 183.138 132.838Z" fill="black"/>
<path opacity="0.2" d="M193.393 133.283C193.522 133.283 193.651 133.283 193.768 133.283V132.697C193.768 132.467 193.677 132.247 193.514 132.084C193.352 131.921 193.131 131.83 192.901 131.83H188.559C188.329 131.83 188.108 131.921 187.945 132.084C187.783 132.247 187.691 132.467 187.691 132.697V133.811C187.691 135.598 189.162 137.913 190.733 137.913C189.824 136.096 190.703 133.283 193.393 133.283Z" fill="black"/>
<path opacity="0.2" d="M73.9958 122.343H74.0719V122.056C74.0704 121.825 73.9777 121.604 73.8141 121.442C73.6506 121.279 73.4294 121.188 73.1988 121.188H68.8683C68.6382 121.188 68.4176 121.28 68.255 121.442C68.0923 121.605 68.001 121.826 68.001 122.056V123.169C68.001 124.956 69.4718 127.271 71.0423 127.271C71.1932 127.267 71.343 127.244 71.4877 127.201C70.3626 125.372 71.2123 122.343 73.9958 122.343Z" fill="black"/>
<path opacity="0.2" d="M84.1862 122.343H84.4792V122.044C84.4776 121.813 84.3849 121.593 84.2214 121.43C84.0578 121.268 83.8366 121.177 83.606 121.177H79.2638C79.0342 121.178 78.8145 121.27 78.6522 121.432C78.4899 121.595 78.398 121.814 78.3965 122.044V123.157C78.3965 124.944 79.8732 127.259 81.4378 127.259C81.5237 127.265 81.6098 127.265 81.6957 127.259C80.5412 125.425 81.3734 122.343 84.1862 122.343Z" fill="black"/>
<path opacity="0.2" d="M94.8336 122.343H94.8864V122.056C94.8848 121.826 94.793 121.606 94.6307 121.444C94.4684 121.282 94.2486 121.19 94.0191 121.188H89.6768C89.5617 121.187 89.4474 121.208 89.3405 121.251C89.2336 121.294 89.1362 121.357 89.0539 121.438C88.9717 121.518 88.9062 121.615 88.8612 121.721C88.8163 121.827 88.7928 121.94 88.792 122.056V123.169C88.792 124.956 90.2687 127.271 91.8333 127.271C91.9906 127.269 92.1467 127.243 92.2963 127.195C91.2004 125.372 92.0384 122.343 94.8336 122.343Z" fill="black"/>
<path opacity="0.2" d="M105.024 122.29H105.294V122.067C105.294 121.837 105.202 121.617 105.04 121.454C104.877 121.291 104.656 121.2 104.426 121.2H100.084C99.8541 121.2 99.6335 121.291 99.4708 121.454C99.3082 121.617 99.2168 121.837 99.2168 122.067V123.181C99.2168 124.968 100.688 127.283 102.252 127.283C102.359 127.28 102.464 127.269 102.569 127.248C101.356 125.425 102.176 122.29 105.024 122.29Z" fill="black"/>
<path opacity="0.2" d="M115.162 122.343C115.349 122.343 115.535 122.358 115.719 122.39V122.056C115.719 121.826 115.628 121.605 115.465 121.442C115.302 121.28 115.082 121.188 114.852 121.188H110.474C110.244 121.188 110.024 121.28 109.861 121.442C109.698 121.605 109.607 121.826 109.607 122.056V123.169C109.607 124.956 111.078 127.271 112.648 127.271C111.488 125.448 112.314 122.343 115.162 122.343Z" fill="black"/>
<path opacity="0.2" d="M125.64 121.968C125.796 121.968 125.953 121.978 126.109 121.997C126.092 121.778 125.994 121.573 125.833 121.423C125.672 121.273 125.461 121.189 125.241 121.188H120.899C120.669 121.19 120.45 121.282 120.287 121.444C120.125 121.606 120.033 121.826 120.032 122.056V123.169C120.032 124.956 121.508 127.271 123.073 127.271C123.186 127.269 123.297 127.255 123.407 127.23C121.884 125.489 122.628 121.968 125.64 121.968Z" fill="black"/>
<path opacity="0.2" d="M136.129 122.413C136.264 122.413 136.399 122.413 136.522 122.413V122.032C136.52 121.803 136.428 121.583 136.266 121.421C136.104 121.258 135.884 121.166 135.654 121.165H131.312C131.082 121.165 130.86 121.256 130.697 121.418C130.533 121.581 130.441 121.802 130.439 122.032V123.145C130.439 124.933 131.916 127.247 133.48 127.247H133.597C132.502 125.431 133.328 122.413 136.129 122.413Z" fill="black"/>
<path opacity="0.2" d="M146.929 122.056C146.929 121.826 146.837 121.605 146.675 121.442C146.512 121.28 146.292 121.188 146.062 121.188H141.719C141.605 121.188 141.493 121.211 141.387 121.254C141.282 121.298 141.187 121.362 141.106 121.442C141.026 121.523 140.962 121.618 140.918 121.724C140.874 121.829 140.852 121.942 140.852 122.056V123.169C140.852 124.956 142.323 127.271 143.888 127.271C144.2 127.263 144.506 127.179 144.778 127.025C143.595 125.279 144.309 122.29 146.929 122.056Z" fill="black"/>
<path opacity="0.2" d="M157.354 122.29V122.067C157.354 121.837 157.263 121.617 157.1 121.454C156.937 121.291 156.717 121.2 156.487 121.2H152.145C151.915 121.2 151.694 121.291 151.531 121.454C151.369 121.617 151.277 121.837 151.277 122.067V123.181C151.277 124.968 152.748 127.283 154.319 127.283C154.57 127.279 154.818 127.221 155.045 127.113C153.973 125.325 154.741 122.437 157.354 122.29Z" fill="black"/>
<path opacity="0.2" d="M167.386 122.114C167.509 122.114 167.632 122.114 167.75 122.114V122.038C167.748 121.807 167.655 121.587 167.492 121.424C167.328 121.262 167.107 121.171 166.877 121.171H162.534C162.305 121.172 162.085 121.264 161.923 121.426C161.76 121.589 161.669 121.808 161.667 122.038V123.151C161.667 124.939 163.144 127.253 164.708 127.253C164.819 127.252 164.929 127.238 165.036 127.212C163.677 125.448 164.456 122.114 167.386 122.114Z" fill="black"/>
<path opacity="0.2" d="M178.157 122.495V122.056C178.155 121.826 178.063 121.606 177.901 121.444C177.739 121.282 177.519 121.19 177.29 121.188H172.947C172.717 121.188 172.496 121.279 172.332 121.442C172.168 121.604 172.076 121.825 172.074 122.056V123.169C172.074 124.956 173.551 127.271 175.116 127.271C175.293 127.268 175.469 127.238 175.637 127.183C174.682 125.366 175.52 122.565 178.157 122.495Z" fill="black"/>
<path opacity="0.2" d="M188.072 122.19C188.237 122.193 188.401 122.204 188.565 122.225V122.056C188.565 121.825 188.473 121.605 188.311 121.442C188.148 121.28 187.927 121.188 187.697 121.188H183.355C183.241 121.188 183.128 121.211 183.023 121.254C182.918 121.298 182.822 121.362 182.742 121.442C182.661 121.523 182.597 121.618 182.554 121.724C182.51 121.829 182.488 121.942 182.488 122.056V123.169C182.488 124.956 183.959 127.271 185.523 127.271C185.578 127.274 185.633 127.274 185.687 127.271C184.375 125.46 185.172 122.19 188.072 122.19Z" fill="black"/>
<path opacity="0.2" d="M198.567 122.642C198.702 122.632 198.837 122.632 198.972 122.642V122.056C198.972 121.826 198.88 121.605 198.718 121.442C198.555 121.28 198.335 121.188 198.105 121.188H193.762C193.532 121.188 193.312 121.28 193.149 121.442C192.986 121.605 192.895 121.826 192.895 122.056V123.169C192.895 124.927 194.354 127.271 195.919 127.271C195.005 125.425 195.889 122.642 198.567 122.642Z" fill="black"/>
<path opacity="0.2" d="M173.979 149.457V143.679C173.979 143.287 173.662 142.97 173.27 142.97H93.6912C93.2996 142.97 92.9821 143.287 92.9821 143.679V149.457C92.9821 149.849 93.2996 150.166 93.6912 150.166H173.27C173.662 150.166 173.979 149.849 173.979 149.457Z" fill="black"/>
<path opacity="0.2" d="M184.75 144.974V144.388C184.75 144.274 184.727 144.161 184.684 144.056C184.64 143.951 184.576 143.855 184.496 143.775C184.415 143.694 184.32 143.63 184.214 143.587C184.109 143.543 183.996 143.521 183.882 143.521H179.54C179.426 143.521 179.313 143.543 179.208 143.587C179.103 143.63 179.007 143.694 178.927 143.775C178.846 143.855 178.782 143.951 178.739 144.056C178.695 144.161 178.673 144.274 178.673 144.388V145.501C178.673 147.289 180.144 149.603 181.714 149.603C181.845 149.6 181.974 149.583 182.101 149.551C181.234 147.722 182.119 144.992 184.75 144.974Z" fill="black"/>
<path opacity="0.2" d="M87.7843 144.599C87.955 144.6 88.1254 144.614 88.2941 144.64V144.394C88.2926 144.163 88.1999 143.943 88.0363 143.78C87.8727 143.618 87.6515 143.527 87.421 143.527H83.0787C82.8492 143.528 82.6295 143.62 82.4671 143.782C82.3048 143.945 82.213 144.164 82.2114 144.394V145.507C82.2114 147.295 83.6881 149.609 85.2528 149.609H85.3524C84.1042 147.793 84.9246 144.599 87.7843 144.599Z" fill="black"/>
<path opacity="0.2" d="M61.6601 22.377H205.3C206.287 22.377 207.234 22.769 207.932 23.4668C208.629 24.1647 209.021 25.1112 209.021 26.0981V58.9141H57.939V26.0981C57.939 25.1112 58.331 24.1647 59.0288 23.4668C59.7267 22.769 60.6732 22.377 61.6601 22.377V22.377Z" fill="black"/>
<path d="M193.557 28.5651H73.4273C72.4256 20.2459 70.6601 12.0366 68.1533 4.04102H198.855C196.308 12.0274 194.535 20.2398 193.557 28.5651V28.5651Z" fill="white"/>
<path opacity="0.2" d="M194.741 20.6599C193.867 25.43 193.569 28.5651 193.569 28.5651H73.4386C73.4386 28.5651 73.1339 25.4886 72.2373 20.6599H194.741Z" fill="black"/>
<path d="M193.557 28.5651H73.4273C72.4256 20.2459 70.6601 12.0366 68.1533 4.04102H198.855C196.308 12.0274 194.535 20.2398 193.557 28.5651V28.5651Z" stroke="#263238" stroke-linecap="round" stroke-linejoin="round"/>
<path d="M191.922 49.2158H74.0718V97.7015H191.922V49.2158Z" fill="#263238"/>
<g opacity="0.4">
<path opacity="0.4" d="M130.058 93.4118L130.679 93.4411C131.461 81.35 132.242 69.2393 133.023 57.1091C132.027 69.2432 131.039 81.3441 130.058 93.4118Z" fill="white"/>
<path opacity="0.4" d="M128.054 93.2595L128.675 93.3122C130.03 81.2992 131.384 69.2335 132.736 57.115C131.177 69.2413 129.616 81.2894 128.054 93.2595Z" fill="white"/>
<path opacity="0.4" d="M126.103 93.0368C126.308 93.0368 126.519 93.0837 126.724 93.1071C128.646 81.223 130.58 69.2237 132.525 57.1091C130.376 69.2354 128.236 81.2113 126.103 93.0368Z" fill="white"/>
<path opacity="0.4" d="M124.127 92.7379L124.754 92.8375C127.247 81.1175 129.759 69.2022 132.29 57.0916C129.556 69.2139 126.835 81.0961 124.127 92.7379Z" fill="white"/>
<path opacity="0.4" d="M122.159 92.3688L122.792 92.4977C125.839 81.0004 128.927 69.2022 132.056 57.1033C128.728 69.2061 125.429 80.9613 122.159 92.3688Z" fill="white"/>
<path opacity="0.4" d="M120.202 91.9234L120.835 92.0816C124.427 80.8421 128.119 69.1866 131.822 57.0974C127.902 69.1866 123.993 80.7894 120.202 91.9234Z" fill="white"/>
<path opacity="0.4" d="M118.25 91.396L118.889 91.5835C122.991 80.6605 127.286 69.1632 131.587 57.0857C127.069 69.1632 122.569 80.596 118.25 91.396Z" fill="white"/>
<path opacity="0.4" d="M116.334 90.7983L116.973 91.0034C121.608 80.4554 126.472 69.1397 131.371 57.0798C126.232 69.1397 121.145 80.3733 116.334 90.7983Z" fill="white"/>
<path opacity="0.4" d="M114.388 90.1127L115.033 90.3471C120.166 80.1975 125.622 69.1104 131.118 57.0681C125.393 69.1104 119.709 80.0979 114.388 90.1127Z" fill="white"/>
<path opacity="0.4" d="M112.49 89.3391L113.134 89.6087C118.737 79.9163 124.784 69.0987 130.884 57.0564C124.538 69.0753 118.274 79.8342 112.49 89.3391Z" fill="white"/>
<path opacity="0.4" d="M110.609 88.4719L111.253 88.7824C117.301 79.6115 123.94 69.0342 130.65 57.0447C123.7 69.0342 116.832 79.5119 110.609 88.4719Z" fill="white"/>
<path opacity="0.4" d="M108.757 87.5108L109.401 87.8624C115.847 79.2658 123.096 68.9874 130.415 57.0271C123.74 67.5642 116.51 77.7398 108.757 87.5108V87.5108Z" fill="white"/>
<path opacity="0.4" d="M106.958 86.456C107.169 86.5908 107.392 86.7138 107.608 86.8428C115.741 77.37 123.287 67.409 130.205 57.0154C123.126 67.3398 115.359 77.1756 106.958 86.456Z" fill="white"/>
<path opacity="0.4" d="M105.159 85.2899L105.797 85.7294C114.573 76.793 122.647 67.1932 129.946 57.0154C122.495 67.1218 114.203 76.5803 105.159 85.2899V85.2899Z" fill="white"/>
<path opacity="0.4" d="M129.712 56.9802C120.284 68.7881 111.06 77.7949 103.442 84.0183L104.069 84.5046C113.474 76.1676 122.061 66.9509 129.712 56.9802V56.9802Z" fill="white"/>
<path opacity="0.4" d="M129.478 56.9626C119.434 68.6826 109.619 77.25 101.772 82.6412L102.393 83.1744C110.134 77.4433 119.698 68.7119 129.478 56.9626Z" fill="white"/>
<path opacity="0.4" d="M129.226 56.9451C118.578 68.5772 108.206 76.6405 100.184 81.141C100.377 81.3402 100.57 81.5395 100.77 81.727C108.716 76.8632 118.859 68.6065 129.226 56.9451Z" fill="white"/>
<path opacity="0.4" d="M129.009 56.9216C117.781 68.4365 106.87 75.9666 98.7188 79.5412L99.3047 80.18C107.374 76.2128 118.039 68.4717 129.009 56.9216Z" fill="white"/>
<path opacity="0.4" d="M97.3711 77.8301C97.541 78.0645 97.7168 78.2989 97.8926 78.5275C106.067 75.5096 117.231 68.3076 128.781 56.9041C116.996 68.2549 105.593 75.2224 97.3711 77.8301Z" fill="white"/>
<path opacity="0.4" d="M96.1753 76.0487C96.3277 76.2948 96.4859 76.5409 96.6441 76.787C104.848 74.7243 116.498 68.0967 128.546 56.863C116.263 68.0322 104.409 74.4137 96.1753 76.0487Z" fill="white"/>
<path opacity="0.4" d="M95.1558 74.2379C95.2847 74.4958 95.4195 74.7478 95.5542 75.0056C103.758 73.8922 115.806 67.8505 128.312 56.8689C115.601 67.7451 103.36 73.5347 95.1558 74.2379Z" fill="white"/>
<path opacity="0.4" d="M94.3237 72.3862C94.4292 72.644 94.5405 72.9077 94.6519 73.1656C102.809 72.9663 115.162 67.5224 128.054 56.8279C115.015 67.411 102.469 72.5913 94.3237 72.3862Z" fill="white"/>
<path opacity="0.4" d="M132.044 93.4939H132.66C132.847 81.3832 133.043 69.2569 133.246 57.115C132.836 69.2491 132.435 81.3754 132.044 93.4939Z" fill="white"/>
<path opacity="0.4" d="M134.025 93.5056H134.647C134.256 81.3949 133.865 69.2686 133.475 57.1267L134.025 93.5056Z" fill="white"/>
<path opacity="0.4" d="M136.006 93.4528H136.627C135.651 81.3812 134.674 69.2706 133.697 57.1208C134.467 69.255 135.236 81.3656 136.006 93.4528Z" fill="white"/>
<path opacity="0.4" d="M138.016 93.3298L138.637 93.2829C137.075 81.3012 135.512 69.2452 133.949 57.115C135.293 69.2452 136.649 81.3168 138.016 93.3298Z" fill="white"/>
<path opacity="0.4" d="M139.967 93.1423L140.589 93.0661C138.463 81.225 136.315 69.2393 134.143 57.1091C136.1 69.2393 138.041 81.2504 139.967 93.1423Z" fill="white"/>
<path opacity="0.4" d="M141.942 92.8786L142.569 92.7848C139.874 81.1234 137.149 69.2315 134.395 57.1091C136.926 69.2354 139.442 81.1586 141.942 92.8786Z" fill="white"/>
<path opacity="0.4" d="M143.911 92.5446L144.538 92.4273C141.284 80.9964 137.981 69.2218 134.629 57.1033C137.746 69.2218 140.841 81.0355 143.911 92.5446Z" fill="white"/>
<path opacity="0.4" d="M145.868 92.1344L146.507 91.9879C142.71 80.8539 138.795 69.21 134.863 57.0974C138.579 69.212 142.247 80.891 145.868 92.1344Z" fill="white"/>
<path opacity="0.4" d="M147.826 91.6538L148.458 91.4722C144.134 80.6488 139.627 69.2042 135.098 57.0857C139.405 69.1925 143.694 80.6839 147.826 91.6538Z" fill="white"/>
<path opacity="0.4" d="M149.765 91.0854L150.41 90.8745C145.564 80.4319 140.448 69.1925 135.332 57.0798C140.243 69.169 145.118 80.4964 149.765 91.0854Z" fill="white"/>
<path opacity="0.4" d="M151.693 90.435L152.338 90.1947C147.005 80.18 141.309 69.1456 135.566 57.0681C141.081 69.1456 146.548 80.2561 151.693 90.435Z" fill="white"/>
<path opacity="0.4" d="M153.603 89.7025C153.82 89.6087 154.043 89.5267 154.254 89.4329C148.453 79.9045 142.159 69.1163 135.801 57.0564C141.924 69.1163 147.978 79.9866 153.603 89.7025Z" fill="white"/>
<path opacity="0.4" d="M155.496 88.8879L156.147 88.5773C149.906 79.594 143.009 69.087 136.035 57.0505C142.768 69.0753 149.425 79.6877 155.496 88.8879Z" fill="white"/>
<path opacity="0.4" d="M157.354 87.9679C157.571 87.8565 157.787 87.7335 157.998 87.6163C150.216 77.8111 142.959 67.6004 136.258 57.0271C143.618 69.0401 150.908 79.3478 157.354 87.9679Z" fill="white"/>
<path opacity="0.4" d="M159.194 86.9541L159.85 86.5673C151.412 77.2529 143.613 67.3799 136.504 57.0154C143.447 67.45 151.025 77.4484 159.194 86.9541V86.9541Z" fill="white"/>
<path opacity="0.4" d="M136.738 56.9978C144.067 67.2232 152.176 76.8663 160.993 85.8407L161.643 85.4012C152.554 76.6545 144.222 67.1526 136.738 56.9978V56.9978Z" fill="white"/>
<path opacity="0.4" d="M136.973 56.9802C144.66 66.9988 153.294 76.2534 162.757 84.616C162.973 84.4578 163.179 84.2937 163.39 84.1296C155.748 77.9063 146.454 68.8584 136.973 56.9802Z" fill="white"/>
<path opacity="0.4" d="M137.207 56.9626C147.052 68.7823 156.674 77.5488 164.438 83.2799C164.649 83.1041 164.866 82.9283 165.071 82.7466C157.195 77.3672 147.316 68.7764 137.207 56.9626Z" fill="white"/>
<path opacity="0.4" d="M137.43 56.9451C147.89 68.6651 158.086 76.9804 166.056 81.8383C166.261 81.645 166.454 81.4399 166.642 81.2523C158.614 76.7577 148.165 68.6651 137.43 56.9451Z" fill="white"/>
<path opacity="0.4" d="M137.676 56.9216C148.734 68.5596 159.481 76.3358 167.562 80.2737L168.148 79.6291C159.997 76.0956 148.997 68.5362 137.676 56.9216Z" fill="white"/>
<path opacity="0.4" d="M169.01 78.6095C169.191 78.3751 169.361 78.1407 169.537 77.9004C161.304 75.3513 149.795 68.3604 137.893 56.9041C149.543 68.4072 160.817 75.6326 169.01 78.6095Z" fill="white"/>
<path opacity="0.4" d="M170.281 76.8456L170.762 76.0955C162.517 74.5426 150.551 68.1435 138.139 56.8806C150.322 68.208 162.042 74.8532 170.281 76.8456Z" fill="white"/>
<path opacity="0.4" d="M171.418 75.0232C171.559 74.7653 171.693 74.5075 171.828 74.2438C163.624 73.6578 151.254 67.8623 138.426 56.8572C151.014 67.956 163.214 74.0094 171.418 75.0232Z" fill="white"/>
<path opacity="0.4" d="M138.602 56.8279C151.635 67.6454 164.152 73.0894 172.297 73.1714C172.414 72.9077 172.526 72.644 172.637 72.3803C164.503 72.7143 151.822 67.5282 138.602 56.8279Z" fill="white"/>
</g>
<path opacity="0.2" d="M116.334 57.9882C114.113 63.6841 116.516 80.2562 132.543 80.2562C148.57 80.2562 154.389 68.6123 153.738 61.4163L175.133 57.9706C175.133 57.9706 181.691 76.0897 167.767 88.7649C153.844 101.44 105.581 100.62 95.3787 90.9858C85.1764 81.352 90.8372 62.3187 90.8372 62.3187L116.334 57.9882Z" fill="black"/>
<path d="M210.235 33.4114V29.4148C210.234 29.267 210.282 29.1229 210.369 29.0037C210.457 28.8845 210.58 28.7965 210.721 28.7527L213.651 27.8385V23.842C213.651 23.3633 213.841 22.9042 214.18 22.5657C214.518 22.2273 214.977 22.0371 215.456 22.0371H218.972C219.145 22.0338 219.313 22.098 219.44 22.2161C219.567 22.3342 219.643 22.4969 219.652 22.67V23.9592C219.652 24.1354 219.582 24.3044 219.458 24.4295C219.334 24.5546 219.166 24.6257 218.99 24.6272H214.519V28.5358C214.516 28.6537 214.485 28.7691 214.426 28.8715C214.368 28.9739 214.285 29.06 214.185 29.1218L211.688 30.6337V33.4172L210.235 33.4114Z" fill="#999999" stroke="#263238" stroke-linecap="round" stroke-linejoin="round"/>
<path d="M214.091 33.4114H210.235V44.9439H214.091V33.4114Z" fill="#263238"/>
<path d="M218.914 32.4327H214.091V45.9224H218.914V32.4327Z" fill="#757575"/>
<path opacity="0.2" d="M218.902 40.6484H214.091V45.9224H218.902V40.6484Z" fill="black"/>
<path d="M218.914 32.4327H214.091V45.9224H218.914V32.4327Z" stroke="#263238" stroke-linecap="round" stroke-linejoin="round"/>
<path d="M52.8702 44.938H56.7261V33.4055H52.8702V44.938Z" fill="#263238"/>
<path d="M48.0473 45.9166H52.8701V32.4269H48.0473V45.9166Z" fill="#757575"/>
<path opacity="0.2" d="M52.876 40.6484H48.0532V45.7935H52.876V40.6484Z" fill="black"/>
<path d="M48.0473 45.9166H52.8701V32.4269H48.0473V45.9166Z" stroke="#263238" stroke-linecap="round" stroke-linejoin="round"/>
<path d="M56.146 39.8632C56.4942 38.9496 56.5481 37.9501 56.3001 37.0044C56.0521 36.0588 55.5147 35.2143 54.763 34.5892L51.9268 32.2452C51.7463 32.0931 51.5365 31.9798 51.3103 31.9125C51.0841 31.8451 50.8465 31.8251 50.6122 31.8537C50.378 31.8823 50.1521 31.9589 49.9488 32.0787C49.7455 32.1985 49.569 32.3589 49.4304 32.5499L38.1851 48.0613C37.9711 48.3515 37.8561 48.7028 37.8569 49.0634V65.7234C37.8569 65.947 37.9013 66.1684 37.9876 66.3747C38.0739 66.581 38.2003 66.7681 38.3595 66.9251C38.5187 67.0821 38.7075 67.2059 38.915 67.2894C39.1225 67.3728 39.3445 67.4142 39.5681 67.411V67.411C40.0157 67.411 40.4449 67.2332 40.7614 66.9167C41.0779 66.6002 41.2557 66.171 41.2557 65.7234V52.1926C41.2568 51.8586 41.3612 51.5331 41.5546 51.2609L49.9637 39.5409C50.0373 39.438 50.1315 39.3515 50.2403 39.2869C50.3491 39.2222 50.4701 39.1809 50.5957 39.1655C50.7213 39.1501 50.8487 39.1609 50.9699 39.1973C51.0911 39.2336 51.2034 39.2948 51.2998 39.3768L52.8468 40.6894C53.2298 41.0145 53.7157 41.1931 54.2181 41.1934V41.1934C54.6358 41.1909 55.0432 41.0627 55.387 40.8254C55.7309 40.5882 55.9954 40.2529 56.146 39.8632V39.8632Z" fill="white" stroke="#263238" stroke-linecap="round" stroke-linejoin="round"/>
<path d="M53.8253 38.3455C54.2687 38.3455 54.6281 37.9861 54.6281 37.5427C54.6281 37.0993 54.2687 36.7399 53.8253 36.7399C53.3819 36.7399 53.0225 37.0993 53.0225 37.5427C53.0225 37.9861 53.3819 38.3455 53.8253 38.3455Z" fill="#999999" stroke="#263238" stroke-linecap="round" stroke-linejoin="round"/>
<path d="M206.66 27.8385H60.3066V50.505H206.66V27.8385Z" fill="#263238"/>
<path opacity="0.2" d="M204.545 29.5437H62.3634C61.9167 29.5437 61.5547 29.9058 61.5547 30.3524V34.0207C61.5547 34.4674 61.9167 34.8294 62.3634 34.8294H204.545C204.991 34.8294 205.353 34.4674 205.353 34.0207V30.3524C205.353 29.9058 204.991 29.5437 204.545 29.5437Z" fill="white"/>
<path d="M193.557 55.064H73.4273C70.042 47.3259 68.2484 38.9856 68.1533 30.5399H198.855C198.855 41.8966 193.557 55.064 193.557 55.064Z" fill="white"/>
<g opacity="0.7">
<path opacity="0.7" d="M83.1431 53.224C83.1431 53.224 85.7742 53.0834 87.2451 52.1985C88.7159 51.3137 88.6104 52.9955 89.4543 53.1068C90.2981 53.2182 92.2905 52.5208 93.3453 52.5208C94.4001 52.5208 93.5973 53.1654 94.7869 53.1068C95.9765 53.0482 95.3377 53.1654 95.9589 53.0482L101.051 52.1985C101.051 52.1985 103.635 51.7004 104.157 51.9524C104.679 52.2044 105.364 53.4467 106.126 53.1244C106.888 52.8021 106.483 52.5384 107.632 52.5384C108.342 52.5417 109.048 52.6443 109.73 52.8431C109.73 52.8431 109.835 52.5443 110.363 52.5384H111.306C111.306 52.5384 113.304 53.0658 113.621 53.0658C113.937 53.0658 116.299 52.5443 116.381 52.5384C116.463 52.5325 118.725 51.9524 118.725 51.9524C119.205 52.454 119.813 52.8147 120.483 52.9955C121.339 53.1068 122.241 52.8783 122.886 53.1654C123.53 53.4526 125.652 53.0482 125.652 53.0482C126.158 53.0515 126.663 53.0907 127.163 53.1654C127.82 53.3153 128.504 53.2951 129.15 53.1068C130.338 52.7926 131.585 52.7725 132.783 53.0482C134.688 53.394 136.44 52.5267 137.248 52.5208C138.057 52.515 141.292 52.8783 142.405 52.8783C143.519 52.8783 146.466 53.2768 148.517 53.0482C150.568 52.8197 151.91 53.3354 153.287 53.3354C154.664 53.3354 156.135 53.2768 156.452 53.2768C156.768 53.2768 158.292 52.2806 160.472 52.5208C162.652 52.7611 160.712 52.222 162.054 52.5208C163.396 52.8197 164.456 53.1068 165.025 53.1654C165.481 53.192 165.938 53.1724 166.39 53.1068L168.734 52.9369H180.419" stroke="#263238" stroke-linecap="round" stroke-linejoin="round"/>
<path opacity="0.7" d="M80.7109 48.7001C80.7109 48.7001 87.948 48.7001 89.2548 48.5829C90.5616 48.4657 91.2589 47.7977 91.9563 47.7977C92.6536 47.7977 96.1755 48.4657 96.1755 48.4657C96.2782 48.2472 96.4459 48.0657 96.6557 47.9461C96.8655 47.8266 97.1071 47.7747 97.3475 47.7977C98.3027 47.7977 97.8163 47.8856 98.6953 48.2372C99.5743 48.5888 99.1172 48.2372 99.5801 48.5829C100.27 48.8928 101 49.1058 101.748 49.2158C101.748 49.2158 105.012 49.3681 105.135 48.5829C105.258 47.7977 106.893 49.2158 106.893 49.2158C106.893 49.2158 111.324 48.5829 113.035 48.5829C114.746 48.5829 119.035 48.2372 119.035 48.2372C119.035 48.2372 122.551 48.7001 122.715 48.7001C122.879 48.7001 123.46 49.6201 124.087 49.2158C124.714 48.8114 125.317 48.3485 126.061 48.4657C126.753 48.6371 127.421 48.8889 128.054 49.2158L129.689 48.3485L131.564 48.4657C131.564 48.4657 133.474 49.7373 134.84 49.2158C135.879 48.8003 136.895 48.3269 137.881 47.7977L139.563 49.2158H140.665L143.929 48.5829C144.18 48.8917 144.518 49.1173 144.9 49.2302C145.282 49.3432 145.689 49.3381 146.068 49.2158C147.45 48.8173 160.665 49.2158 164.028 49.2158C167.392 49.2158 168.13 48.3485 168.13 48.3485L170.721 49.2158H183.613" stroke="#263238" stroke-linecap="round" stroke-linejoin="round"/>
</g>
<path opacity="0.2" d="M194.782 51.677C194.073 53.7866 193.557 55.0641 193.557 55.0641H73.4274C73.4274 55.0641 72.8414 53.8335 72.0386 51.677H194.782Z" fill="black"/>
<path opacity="0.2" d="M197.284 42.8049C196.88 44.5629 196.434 46.2799 195.995 47.7976H70.7316C70.2979 46.3092 69.8526 44.6274 69.4658 42.8049H197.284Z" fill="black"/>
<path d="M193.557 55.064H73.4273C70.042 47.3259 68.2484 38.9856 68.1533 30.5399H198.855C198.855 41.8966 193.557 55.064 193.557 55.064Z" stroke="#263238" stroke-linecap="round" stroke-linejoin="round"/>
<path d="M60.2772 26.6724H56.6968V51.6828H60.2772V26.6724Z" fill="#757575"/>
<path opacity="0.2" d="M60.2069 44.264H56.7202V51.6828H60.2069V44.264Z" fill="black"/>
<path d="M60.2772 26.6724H56.6968V51.6828H60.2772V26.6724Z" stroke="#263238" stroke-linecap="round" stroke-linejoin="round"/>
<path d="M210.264 26.6724H206.684V51.6828H210.264V26.6724Z" fill="#757575"/>
<path opacity="0.2" d="M210.264 44.264H206.654V51.6828H210.264V44.264Z" fill="black"/>
<path d="M210.264 26.6724H206.684V51.6828H210.264V26.6724Z" stroke="#263238" stroke-linecap="round" stroke-linejoin="round"/>
<path d="M206.713 25.6234V43.8656H60.2482V25.6234H58.8418V45.0903H208.119V25.6234H206.713Z" fill="#999999" stroke="#263238" stroke-linecap="round" stroke-linejoin="round"/>
<path d="M215.368 56.3532V97.2618C215.368 97.9519 215.094 98.6137 214.606 99.1016C214.118 99.5895 213.456 99.8637 212.766 99.8637H54.177C53.487 99.8637 52.8252 99.5895 52.3373 99.1016C51.8493 98.6137 51.5752 97.9519 51.5752 97.2618V56.3532C51.5752 55.6631 51.8493 55.0013 52.3373 54.5134C52.8252 54.0255 53.487 53.7513 54.177 53.7513H127.251V56.3532C127.251 56.3532 114.775 67.1766 93.2632 71.1673C96.3456 85.1199 113.187 95.7793 133.51 95.7793C153.832 95.7793 170.674 85.1082 173.762 71.1673C152.221 67.1766 139.745 56.3532 139.745 56.3532V53.7279H212.784C213.126 53.7302 213.464 53.8 213.78 53.9332C214.095 54.0665 214.381 54.2606 214.621 54.5045C214.861 54.7483 215.05 55.0371 215.178 55.3544C215.307 55.6716 215.371 56.011 215.368 56.3532Z" fill="white" stroke="#263238" stroke-linecap="round" stroke-linejoin="round"/>
<path d="M215.368 56.3532V97.2618C215.368 97.604 215.301 97.9428 215.169 98.2589C215.038 98.5749 214.846 98.862 214.604 99.1037C214.362 99.3454 214.074 99.5369 213.758 99.6673C213.441 99.7977 213.103 99.8644 212.76 99.8637H54.177C53.8349 99.8644 53.4959 99.7977 53.1796 99.6673C52.8632 99.5369 52.5757 99.3454 52.3335 99.1037C52.0912 98.862 51.8991 98.5749 51.7679 98.2589C51.6368 97.9428 51.5693 97.604 51.5693 97.2618V56.3532C51.5709 55.6621 51.8461 54.9997 52.3348 54.511C52.8235 54.0223 53.4859 53.747 54.177 53.7455H127.251V56.3532C127.251 56.3532 114.769 67.1707 93.2632 71.1673C96.3456 85.1199 113.187 95.7792 133.516 95.7792C153.844 95.7792 170.674 85.1082 173.762 71.1673C152.221 67.1707 139.745 56.3532 139.745 56.3532V53.7279H212.784C213.474 53.7341 214.134 54.014 214.619 54.5062C215.103 54.9983 215.373 55.6626 215.368 56.3532V56.3532Z" fill="white"/>
<path opacity="0.2" d="M211.852 56.9803V94.748C211.852 94.9991 211.802 95.2477 211.706 95.4795C211.609 95.7114 211.468 95.9218 211.29 96.0988C211.112 96.2758 210.9 96.4159 210.668 96.5109C210.436 96.6059 210.187 96.654 209.936 96.6525H55.7356C55.4852 96.6533 55.2372 96.6045 55.0058 96.5091C54.7744 96.4137 54.5642 96.2734 54.3872 96.0964C54.2102 95.9194 54.0699 95.7091 53.9745 95.4777C53.879 95.2463 53.8303 94.9983 53.8311 94.748V56.9803C53.8303 56.7294 53.8789 56.4809 53.9742 56.2488C54.0695 56.0167 54.2096 55.8057 54.3865 55.6278C54.5633 55.4498 54.7735 55.3085 55.0049 55.2117C55.2364 55.115 55.4847 55.0649 55.7356 55.0641H127.228V56.3533C127.228 56.3533 114.746 67.1708 93.2396 71.1674C96.3219 85.12 113.164 95.7794 133.492 95.7794C153.82 95.7794 170.65 85.1083 173.738 71.1674C152.197 67.1708 139.721 56.3533 139.721 56.3533V55.0641H209.953C210.458 55.0687 210.941 55.2727 211.297 55.6315C211.652 55.9904 211.852 56.4751 211.852 56.9803V56.9803Z" fill="white"/>
<path d="M215.368 56.3532V97.2618C215.368 97.604 215.301 97.9428 215.169 98.2589C215.038 98.5749 214.846 98.862 214.604 99.1037C214.362 99.3454 214.074 99.5369 213.758 99.6673C213.441 99.7977 213.103 99.8644 212.76 99.8637H54.177C53.8349 99.8644 53.4959 99.7977 53.1796 99.6673C52.8632 99.5369 52.5757 99.3454 52.3335 99.1037C52.0912 98.862 51.8991 98.5749 51.7679 98.2589C51.6368 97.9428 51.5693 97.604 51.5693 97.2618V56.3532C51.5709 55.6621 51.8461 54.9997 52.3348 54.511C52.8235 54.0223 53.4859 53.747 54.177 53.7455H127.251V56.3532C127.251 56.3532 114.769 67.1707 93.2632 71.1673C96.3456 85.1199 113.187 95.7792 133.516 95.7792C153.844 95.7792 170.674 85.1082 173.762 71.1673C152.221 67.1707 139.745 56.3532 139.745 56.3532V53.7279H212.784C213.474 53.7341 214.134 54.014 214.619 54.5062C215.103 54.9983 215.373 55.6626 215.368 56.3532V56.3532Z" stroke="#263238" stroke-linecap="round" stroke-linejoin="round"/>
<path opacity="0.2" d="M162.98 111.988L170.768 133.711C170.768 133.711 174.137 109.802 176.147 109.802C178.157 109.802 182.488 122.876 182.488 122.876C182.488 122.876 185.16 116.055 187.691 115.809C190.223 115.563 192.514 132.557 192.514 132.557L192.907 170.278L189.713 227.325C189.713 227.325 169.338 204.881 163.396 199.097C157.454 193.313 151.775 180.585 150.134 178.001C148.494 175.417 148.078 161.886 148.078 161.886C150.155 159.228 151.241 155.929 151.148 152.557C151.148 152.557 155.93 144.552 155.637 138.645C155.344 132.738 154.606 109.785 162.98 111.988Z" fill="black" fill-opacity="0.7"/>
<path d="M224.281 217.222L193.434 233.448C193.434 233.284 189.379 226.715 184.48 219.285C182.265 215.921 179.874 212.388 177.606 209.188C173.891 203.955 169.168 199.437 168.764 198.452C167.592 195.522 158.555 184.553 156.534 180.286C154.512 176.02 154.049 162.747 153.158 159.624C152.268 156.501 154.823 153.518 156.874 152.065C158.925 150.611 161.075 146.791 161.075 146.791C161.075 146.791 158.807 137.954 158.784 133.459C158.761 128.965 157.231 113.277 159.059 111.812C160.888 110.347 162.523 110.963 162.98 111.971C164.48 115.293 165.828 123.65 166.982 127.5C168.137 131.35 170.305 142.519 171.371 143.322C172.438 144.124 174.336 141.112 174.336 141.112C174.336 141.112 174.518 131.736 174.922 127.851L174.336 115.545C174.336 115.545 173.241 108.15 175.79 107.447C179.306 106.48 180.589 108.689 180.988 109.621C181.386 110.552 183.027 115.92 183.027 115.92L183.121 116.289C183.121 116.325 183.121 116.36 183.121 116.401V116.465C183.148 116.567 183.177 116.678 183.208 116.799C183.273 117.045 183.349 117.338 183.431 117.672C184.211 120.725 185.711 126.837 185.646 128.343C185.558 130.377 184.849 141.64 185.851 143.978L187.41 128.42C187.41 128.42 184.896 116.43 185.629 114.701C186.361 112.973 189.813 114.883 190.223 115.563C190.633 116.242 193.985 120.356 194.583 121.927L195.169 123.497C195.169 123.497 195.995 119.782 197.935 120.749C199.874 121.716 200.115 126.439 200.249 128.502C200.384 130.564 201.791 143.831 202.007 143.855C202.224 143.878 204.463 150.77 204.158 155.323C203.519 165.068 205.207 172.317 205.266 176.056C205.324 179.794 202.505 188.455 202.505 188.455C202.605 188.625 204.445 191.754 204.949 194.503C205.318 196.519 211.887 203.803 217.255 209.598C220.988 213.595 224.117 216.865 224.281 217.222Z" fill="white"/>
<path opacity="0.4" d="M184.486 219.296C182.271 215.933 179.88 212.399 177.612 209.2C173.897 203.967 169.174 199.449 168.769 198.464C167.597 195.534 158.561 184.564 156.54 180.298C154.518 176.032 154.055 162.759 153.164 159.636C152.274 156.512 154.829 153.53 156.88 152.076C158.931 150.623 161.081 146.802 161.081 146.802C161.081 146.802 158.813 137.965 158.79 133.471C158.766 128.976 157.237 113.289 159.065 111.824C160.894 110.359 162.529 110.974 162.986 111.982C164.486 115.305 165.834 123.661 166.988 127.511C168.142 131.361 170.311 142.53 171.377 143.333C172.444 144.136 174.342 141.124 174.342 141.124C174.342 141.124 174.524 131.748 174.928 127.863L174.342 115.557C174.342 115.557 173.246 108.162 175.796 107.458C179.312 106.491 180.595 108.701 180.993 109.632C181.392 110.564 183.033 115.932 183.033 115.932L183.126 116.301C183.126 116.336 183.126 116.371 183.126 116.412V116.477C183.15 116.578 183.179 116.69 183.214 116.811C183.279 117.057 183.355 117.35 183.437 117.684C182.529 116.248 181.281 115.024 179.61 114.701C174.922 113.787 175.936 119.003 176.382 122.132C176.634 124.208 176.585 126.31 176.235 128.373L177.407 127.699C176.563 129.205 175.356 141.722 175.356 144.505C175.356 147.289 173.153 148.215 171.178 147.4C169.203 146.586 168.5 133.811 167 131.519C165.5 129.228 161.327 133.606 161.14 137.608C160.952 141.61 164.685 153.547 163.8 156.36C162.915 159.173 162.927 169.838 162.927 169.838L161.849 167.09C161.919 167.465 161.849 168.725 159.593 172.434C158.745 173.777 158.197 175.286 157.986 176.86C157.775 178.433 157.905 180.034 158.368 181.552C159.745 184.594 166.73 192.61 167.902 193.436C167.902 193.436 168.752 189.955 171.418 190.881C170.51 192.325 169.849 193.909 169.461 195.569C168.91 198.124 174.471 199.759 176.212 202.191C177.278 203.674 177.993 208.192 184.486 219.296Z" fill="white"/>
<path opacity="0.4" d="M217.29 209.604C211.805 204.078 202.154 198.816 202.74 197.439C203.525 195.587 202.529 191.643 200.841 188.444C199.153 185.244 201.427 180.052 201.427 180.052L202.47 183.07C203.305 179.589 203.402 175.972 202.757 172.452C201.691 166.469 200.859 168.572 200.859 168.572C200.859 168.572 201.075 163.181 202.031 160.239C202.986 157.298 203.789 150.154 202.47 145.929C201.152 141.704 198.368 142.501 197.624 143.954C196.88 145.408 197.677 151.074 198.292 152.932C198.907 154.79 196.288 157.913 196.235 155.592C196.182 153.272 195.192 146.802 195.192 146.802L197.178 133.811L195.192 123.491C195.192 123.491 196.018 119.776 197.958 120.743C199.897 121.71 200.138 126.433 200.273 128.496C200.407 130.558 201.814 143.826 202.031 143.849C202.247 143.872 204.486 150.764 204.181 155.317C203.542 165.062 205.23 172.311 205.289 176.05C205.347 179.788 202.529 188.449 202.529 188.449C202.628 188.619 204.468 191.749 204.972 194.497C205.341 196.513 211.91 203.797 217.278 209.592L217.29 209.604Z" fill="white"/>
<path opacity="0.4" d="M194.582 121.927C194.694 122.22 194.787 122.46 194.858 122.653C192.994 118.323 189.818 119.665 189.256 120.895C188.693 122.126 190.586 129.762 191.014 130.945C191.441 132.129 189.314 141.581 189.004 144.71C188.693 147.84 187.867 148.478 187.867 148.478C185.763 148.637 185.523 142.829 185.523 142.032C185.564 142.699 185.694 143.357 185.91 143.99L187.468 128.431C187.468 128.431 184.896 116.43 185.628 114.701C186.361 112.973 189.812 114.883 190.223 115.563C190.633 116.242 193.985 120.356 194.582 121.927Z" fill="white"/>
<path d="M224.281 217.222C223.883 216.32 205.582 197.884 204.943 194.497C204.428 191.672 202.494 188.444 202.494 188.444C202.494 188.444 205.312 179.8 205.254 176.044C205.195 172.288 203.496 165.056 204.146 155.311C204.451 150.758 202.218 143.867 201.996 143.843C201.773 143.82 200.367 130.553 200.238 128.49C200.109 126.427 199.868 121.704 197.923 120.737C195.977 119.77 195.157 123.485 195.157 123.485L194.571 121.915C193.985 120.344 190.621 116.231 190.211 115.551C189.801 114.871 186.355 112.955 185.617 114.69C184.879 116.424 187.451 128.396 187.451 128.396L185.904 143.972C184.902 141.628 185.611 130.371 185.699 128.338C185.787 126.304 183.033 115.914 183.033 115.914C183.033 115.914 181.38 110.57 180.993 109.609C180.607 108.648 179.312 106.468 175.796 107.435C173.246 108.138 174.342 115.533 174.342 115.533L174.928 127.839C174.536 131.742 174.342 141.101 174.342 141.101C174.342 141.101 172.444 144.107 171.377 143.31C170.311 142.513 168.142 131.35 166.988 127.488C165.834 123.626 164.486 115.281 162.986 111.959C162.529 110.951 160.894 110.336 159.065 111.801C157.237 113.266 158.761 128.947 158.79 133.447C158.819 137.948 161.081 146.779 161.081 146.779C161.081 146.779 158.931 150.576 156.88 152.053C154.829 153.53 152.274 156.483 153.164 159.612C154.055 162.742 154.518 176.02 156.54 180.275C158.561 184.529 167.574 195.511 168.769 198.441C169.174 199.425 173.897 203.943 177.612 209.176C184.908 219.449 193.434 233.202 193.434 233.437" stroke="#263238" stroke-linecap="round" stroke-linejoin="round"/>
<path d="M161.075 146.808C161.075 146.808 162.529 154.01 162.476 155.217C162.476 155.217 161.204 160.778 161.192 164.382C160.303 165.74 159.504 167.156 158.802 168.619C158.309 169.92 157.43 173.12 157.794 174.901" stroke="#263238" stroke-linecap="round" stroke-linejoin="round"/>
<path d="M158.42 157.45C158.42 157.45 161.983 157.479 161.755 158.979" stroke="#263238" stroke-linecap="round" stroke-linejoin="round"/>
<path d="M161.192 164.382C161.192 164.382 158.907 163.392 158.104 164.722" stroke="#263238" stroke-linecap="round" stroke-linejoin="round"/>
<path d="M174.348 141.124C174.348 141.124 174.184 146.644 172.73 146.205" stroke="#263238" stroke-linecap="round" stroke-linejoin="round"/>
<path d="M185.904 143.972C185.904 143.972 185.482 146.99 186.619 147.922" stroke="#263238" stroke-linecap="round" stroke-linejoin="round"/>
<path d="M195.174 123.497C195.174 123.497 196.757 131.115 197.12 132.92C197.483 134.725 195.321 143.937 195.362 146.334C195.403 148.73 196.428 152.158 196.288 153.77" stroke="#263238" stroke-linecap="round" stroke-linejoin="round"/>
<path d="M201.492 181.353C201.492 181.353 200.982 186.328 202.511 188.455" stroke="#263238" stroke-linecap="round" stroke-linejoin="round"/>
<path d="M170.768 191.198C170.768 191.198 167.357 194.304 168.605 198.124" stroke="#263238" stroke-linecap="round" stroke-linejoin="round"/>
<path d="M193.182 152.475C193.235 154.666 191.952 157.221 191.817 160.251" stroke="#263238" stroke-linecap="round" stroke-linejoin="round"/>
<path d="M182.318 150.518C183.044 152.311 181.462 156.213 181.222 157.678C181.126 158.825 181.251 159.979 181.591 161.077" stroke="#263238" stroke-linecap="round" stroke-linejoin="round"/>
<path d="M202.739 156.694C202.446 158.599 201.099 159.958 200.841 165.818" stroke="#263238" stroke-linecap="round" stroke-linejoin="round"/>
<path d="M169.467 149.961C170.451 151.033 169.789 156.155 170.053 156.993" stroke="#263238" stroke-linecap="round" stroke-linejoin="round"/>
<path d="M187.826 120.456C187.826 120.456 191.178 118.001 194.061 120.895" stroke="#263238" stroke-linecap="round" stroke-linejoin="round"/>
<path d="M176.282 114.813C176.282 114.813 176.868 113.834 179.698 114.074C182.528 114.314 183.032 115.908 183.032 115.908" stroke="#263238" stroke-linecap="round" stroke-linejoin="round"/>
<path d="M168.013 131.543C168.013 131.543 167.064 130.142 164.562 130.605C162.06 131.068 160.946 134.608 160.946 134.608" fill="white"/>
<path d="M168.013 131.543C168.013 131.543 167.064 130.142 164.562 130.605C162.06 131.068 160.946 134.608 160.946 134.608" stroke="#263238" stroke-linecap="round" stroke-linejoin="round"/>
<path d="M202.013 143.855C202.013 143.855 199.927 140.831 197.419 142.126" stroke="#263238" stroke-linecap="round" stroke-linejoin="round"/>
<path opacity="0.2" d="M113.141 121.704C116.657 124.429 113.691 141.153 113.691 141.153L114.002 146.597L120.032 143.972L122.78 155.604C122.78 155.604 122.71 159.864 124.943 161.464C124.943 161.464 125.493 171.022 124.943 178.007C124.392 184.992 113.223 193.202 109.373 200.533C105.523 207.864 80.4124 229.411 80.4124 229.411L59.1523 219.296L74.5231 157.216L88.2941 139.513L96.4571 119.149C96.4571 119.149 97.8577 132.451 97.0431 141.417L113.141 121.704Z" fill="black" fill-opacity="0.7"/>
<path d="M119.059 158.856C118.526 161.423 119.809 175.493 119.586 177.392C119.364 179.29 108.171 192.042 107.608 193.008C107.046 193.975 99.5627 198.283 97.8223 200.339C89.6886 209.827 85.2467 218.564 81.678 227.325C80.9924 229.012 80.336 230.706 79.6914 232.405L47.4146 213.653C50.1277 210.29 52.6886 207.301 55.0326 204.582C59.7206 199.068 63.4534 194.655 65.2817 190.489C65.8428 189.425 66.4854 188.406 67.2038 187.441C67.9304 186.41 68.5809 185.56 68.5809 185.56C68.5809 185.56 66.2369 178.956 66.7819 176.882C67.3268 174.807 66.108 157.755 66.108 157.755C66.108 157.755 64.5199 146.146 62.9553 143.216C62.571 142.451 62.3971 141.598 62.4513 140.743C62.5275 138.065 64.0804 134.69 64.8422 130.781C65.8618 125.507 65.3696 122.899 68.5692 124.722C71.7687 126.544 70.2744 137.614 70.2744 137.614L75.1089 148.326C76.3805 145.736 75.1089 138.176 75.0445 136.389C75.0445 136.096 75.0445 135.61 74.9976 134.977C74.898 131.895 74.6929 125.478 74.9566 122.946C74.9566 122.806 74.9566 122.677 75.0034 122.56C75.3961 119.946 76.7966 111.631 77.6873 110.705C79.0117 109.334 81.1154 108.179 83.0961 111.291C84.2036 113.049 83.729 126.99 83.729 126.99C83.729 126.99 88.3232 121.446 89.7179 120.093C91.1126 118.739 95.3435 116.266 96.4745 119.131C97.6055 121.997 93.4331 130.851 93.4331 130.851C94.3063 132.902 94.4118 138.581 94.4118 138.581C94.4118 138.581 96.3866 145.677 97.5996 145.613H97.6523C98.0039 145.537 98.3907 144.247 98.795 142.437C99.7912 138.001 100.875 130.412 101.725 129.75L102.311 129.281C102.338 129.247 102.369 129.218 102.405 129.193L102.622 129C104.696 127.154 109.068 123.052 109.068 123.052C109.068 123.052 109.378 121.089 113.205 121.692C117.031 122.296 111.505 133.588 111.505 133.588C110.738 137.18 109.56 146.421 109.56 146.421C109.202 150.266 109.413 160.597 109.413 160.597C109.413 160.597 111.224 154.584 111.107 152.393C110.99 150.201 114.705 144.833 115.795 143.45C116.885 142.068 121.749 142.554 120.395 145.208C119.041 147.863 119.592 156.278 119.059 158.856Z" fill="white"/>
<path opacity="0.4" d="M65.2643 190.512C65.8254 189.448 66.468 188.429 67.1864 187.465C67.1864 187.465 65.2819 192.739 65.0943 195.546C64.9713 197.398 60.0958 200.603 55.0151 204.605C59.7324 199.091 63.436 194.679 65.2643 190.512Z" fill="white"/>
<path opacity="0.4" d="M67.186 187.465C67.9126 186.434 68.5631 185.584 68.5631 185.584C68.5631 185.584 66.2191 178.98 66.7641 176.905C67.3091 174.831 66.0902 157.778 66.0902 157.778C66.0902 157.778 64.5021 146.17 62.9375 143.24L66.5824 149.609C66.5824 149.609 66.225 154.643 67.2622 157.403C68.2994 160.163 69.6062 168.584 69.6062 168.584C69.6062 168.584 68.0709 175.663 68.5924 178.212C69.1139 180.761 71.4638 179.835 71.4638 179.835C71.4638 179.835 72.6182 184.5 67.186 187.465Z" fill="white"/>
<path opacity="0.4" d="M75.6889 139.512C78.2029 154.233 73.8723 150.16 72.3077 146.984C70.7431 143.808 67.0689 137.796 64.3029 139.079C63.5262 139.443 62.8755 140.031 62.4336 140.767C62.5098 138.089 64.0627 134.713 64.8245 130.805C65.8441 125.531 65.3519 122.923 68.5514 124.745C71.751 126.568 70.2567 137.637 70.2567 137.637L75.0912 148.349C76.3628 145.759 75.0912 138.2 75.0267 136.413C75.0267 136.12 75.0267 135.633 74.9799 135C75.1732 136.354 75.4076 137.86 75.6889 139.512Z" fill="white"/>
<path opacity="0.4" d="M81.842 124.968C81.842 124.968 79.1289 121.417 76.7731 121.599C76.3686 121.62 75.9794 121.76 75.6534 122.001C75.3275 122.241 75.0791 122.572 74.939 122.952C74.939 122.812 74.939 122.683 74.9858 122.565C75.3785 119.952 76.779 111.637 77.6697 110.711C78.9941 109.339 81.0978 108.185 83.0785 111.297C84.186 113.055 83.7114 126.996 83.7114 126.996C83.7114 126.996 88.3056 121.452 89.7003 120.098C91.095 118.745 95.3259 116.272 96.4569 119.137C97.5879 122.003 93.4155 130.857 93.4155 130.857C94.2887 132.908 94.3942 138.587 94.3942 138.587C94.3942 138.587 96.369 145.683 97.582 145.619C94.9098 150.647 93.1284 139.53 93.1284 139.53C93.5269 137.233 92.1088 132.252 92.2494 130.939C92.39 129.627 89.7882 124.986 85.4049 126.251C81.0216 127.517 84.186 144.839 84.186 144.839C83.3199 146.219 82.816 147.795 82.721 149.422C81.3674 147.752 82.721 142.976 82.721 142.976C81.5197 138.405 81.842 124.968 81.842 124.968Z" fill="white"/>
<path opacity="0.4" d="M102.27 129.263C100.401 131.227 100.658 136.19 98.7539 142.419C99.7501 137.983 100.834 130.394 101.684 129.732L102.27 129.263Z" fill="white"/>
<path opacity="0.4" d="M119.059 158.856C118.525 161.423 119.809 175.493 119.586 177.391C119.363 179.29 108.171 192.041 107.608 193.008C107.046 193.975 99.5625 198.282 97.822 200.339C89.6884 209.827 85.2465 218.564 81.6777 227.325C83.022 222.783 84.6444 218.329 86.5357 213.987C90.3857 205.332 91.9562 203.791 94.265 201.318C96.5738 198.845 96.3219 193.589 96.3219 193.589C98.026 193.178 99.7727 192.972 101.526 192.973C104.456 192.973 113.128 180.609 116.111 178.44C119.094 176.272 119.627 176.272 116.111 171.49C112.595 166.709 113.591 172.258 112.536 172.076C111.482 171.895 110.907 174.204 110.907 174.204C110.538 169.328 107.391 163.656 106.729 162.238C106.067 160.819 108.335 152.504 107.866 150.189C107.397 147.875 109.882 133.781 109.882 133.781C109.882 133.781 109.571 128.373 104.672 128.355C103.921 128.313 103.178 128.537 102.574 128.988C104.649 127.142 109.02 123.04 109.02 123.04C109.02 123.04 109.331 121.077 113.158 121.68C116.984 122.284 111.458 133.576 111.458 133.576C110.691 137.168 109.513 146.41 109.513 146.41C109.155 150.254 109.366 160.585 109.366 160.585C109.366 160.585 111.177 154.573 111.06 152.381C110.943 150.189 114.658 144.822 115.748 143.439C116.838 142.056 121.702 142.542 120.348 145.197C118.994 147.851 119.592 156.278 119.059 158.856Z" fill="white"/>
<path d="M79.6856 232.458C83.6645 221.951 88.1122 211.696 97.8223 200.369C99.5803 198.341 107.04 194.034 107.608 193.038C108.177 192.042 119.369 179.314 119.586 177.421C119.803 175.528 118.526 161.452 119.059 158.886C119.592 156.319 118.971 147.857 120.319 145.22C121.667 142.583 116.803 142.103 115.719 143.462C114.635 144.822 110.931 150.236 111.031 152.405C111.13 154.573 109.337 160.609 109.337 160.609C109.337 160.609 109.126 150.277 109.484 146.433C109.484 146.433 110.656 137.192 111.429 133.6C111.429 133.6 116.949 122.302 113.129 121.704C109.308 121.106 108.991 123.063 108.991 123.063C108.991 123.063 102.891 128.795 101.684 129.732C100.477 130.67 98.8302 145.32 97.6172 145.595C96.4041 145.871 94.3766 138.563 94.3766 138.563C94.3766 138.563 94.2711 132.885 93.398 130.834C93.398 130.834 97.5644 122.003 96.4393 119.114C95.3142 116.225 91.0833 118.727 89.6827 120.075C88.2822 121.423 83.6938 126.972 83.6938 126.972C83.6938 126.972 84.1685 113.019 83.0609 111.273C81.0802 108.15 78.9589 109.304 77.6521 110.687C76.7614 111.613 75.3609 119.928 74.9683 122.542C74.5756 125.156 74.9683 134.578 75.0093 136.372C75.0503 138.165 76.3454 145.718 75.0737 148.308L70.2392 137.596C70.2392 137.596 71.7394 126.515 68.534 124.704C65.3286 122.894 65.8267 125.507 64.807 130.764C63.7874 136.02 61.3613 140.292 62.9201 143.228C64.4789 146.164 66.0728 157.766 66.0728 157.766C66.0728 157.766 67.2799 174.819 66.7467 176.893C66.2134 178.968 68.5633 185.578 68.5633 185.578C68.5633 185.578 65.856 189.147 65.2641 190.506C62.5334 196.712 55.6244 203.498 47.4087 213.706" stroke="#263238" stroke-linecap="round" stroke-linejoin="round"/>
<path d="M83.7113 127.007C83.0308 128.014 82.6862 129.21 82.7269 130.424C82.7269 132.651 84.186 144.839 84.186 144.839C84.186 144.839 83.1253 146.093 83.0726 147.183" stroke="#263238" stroke-linecap="round" stroke-linejoin="round"/>
<path d="M109.349 160.579C109.509 162.638 110.039 164.651 110.914 166.521C112.285 169.229 111.84 170.723 111.371 172.323C111.057 173.725 110.89 175.157 110.873 176.595" stroke="#263238" stroke-linecap="round" stroke-linejoin="round"/>
<path d="M75.607 145.923C75.607 145.923 76.6267 149.158 74.7339 150.693" stroke="#263238" stroke-linecap="round" stroke-linejoin="round"/>
<path d="M97.6349 145.595C97.6349 145.595 97.8342 146.867 96.0352 146.984" stroke="#263238" stroke-linecap="round" stroke-linejoin="round"/>
<path d="M109.718 130.945C109.718 130.945 105.206 126.023 101.702 129.732" stroke="#263238" stroke-linecap="round" stroke-linejoin="round"/>
<path d="M91.435 128.179C91.435 128.179 89.3547 125.548 87.5498 125.706C85.7449 125.865 83.3072 126.966 83.0317 128.414" stroke="#263238" stroke-linecap="round" stroke-linejoin="round"/>
<path d="M111.757 170.74C112.485 171.782 113.015 172.948 113.322 174.18" stroke="#263238" stroke-linecap="round" stroke-linejoin="round"/>
<path d="M100.037 150.734C98.6367 153.342 99.3047 157.766 98.7891 158.979" stroke="#263238" stroke-linecap="round" stroke-linejoin="round"/>
<path d="M85.2 146.404C85.5282 147.904 84.491 150.348 84.3327 152.147C84.1745 153.946 85.6454 156.723 85.3758 159.249" stroke="#263238" stroke-linecap="round" stroke-linejoin="round"/>
<path d="M75.6893 152.545C75.6893 152.545 74.4645 155.37 74.5173 157.233C74.57 159.097 75.2322 163.181 75.2322 163.181" stroke="#263238" stroke-linecap="round" stroke-linejoin="round"/>
<path d="M66.6821 152.41C66.6821 152.41 66.2367 155.34 67.2681 157.403C68.2994 159.466 69.3015 163.849 69.3015 163.849" stroke="#263238" stroke-linecap="round" stroke-linejoin="round"/>
<path d="M68.5635 185.578C69.1036 185.428 69.5864 185.12 69.949 184.693C70.3116 184.265 70.5373 183.739 70.5969 183.181" stroke="#263238" stroke-linecap="round" stroke-linejoin="round"/>
<path d="M98.0216 194.509C98.0216 194.509 99.1409 198.652 96.9961 201.318" stroke="#263238" stroke-linecap="round" stroke-linejoin="round"/>
<path d="M62.4629 140.274C62.4629 140.274 65.6156 137.198 68.0006 139.794" stroke="#263238" stroke-linecap="round" stroke-linejoin="round"/>
<path d="M74.9858 122.565C74.9858 122.565 77.3298 120.11 80.0723 122.735" stroke="#263238" stroke-linecap="round" stroke-linejoin="round"/>
</g>
</svg>
